<?xml version="1.0" encoding="UTF-8"?><svg id="a" xmlns="http://www.w3.org/2000/svg" viewBox="0 0 16 16"><defs><style>.b{fill:#fadb47;}.c{fill:#333;}.d{fill:#e2ae39;}</style></defs><circle class="b" cx="8" cy="8" r="7.75"/><path class="b" d="M7.94,7.96c.05,0,.09,.03,.12,.07-.05,0-.09-.03-.12-.07h0Z"/><circle class="d" cx="8" cy="8" r="5.95"/><path class="c" d="M8,15.34c-.99,0-1.95-.19-2.86-.58-.87-.37-1.66-.9-2.33-1.57s-1.2-1.46-1.57-2.33c-.38-.9-.58-1.87-.58-2.86s.19-1.95,.58-2.86c.37-.87,.9-1.66,1.57-2.33s1.46-1.2,2.33-1.57c.9-.38,1.87-.58,2.86-.58s1.95,.19,2.86,.58c.87,.37,1.66,.9,2.33,1.57s1.2,1.46,1.57,2.33c.38,.9,.58,1.87,.58,2.86s-.19,1.95-.58,2.86c-.37,.87-.9,1.66-1.57,2.33s-1.46,1.2-2.33,1.57c-.9,.38-1.87,.58-2.86,.58Zm0-13.27c-1.59,0-3.08,.62-4.2,1.74s-1.74,2.61-1.74,4.2,.62,3.08,1.74,4.2,2.61,1.74,4.2,1.74,3.08-.62,4.2-1.74c1.12-1.12,1.74-2.61,1.74-4.2s-.62-3.08-1.74-4.2c-1.12-1.12-2.61-1.74-4.2-1.74Z"/><g><path class="d" d="M13.12,8.07c-.74-1.34-2.41-3.54-2.41-3.54l-.78,.55-1.38-1.04h-1.03l-.33,.2-.05,.63-.29-.38-.77,.55-.78-.52s-1.67,2.2-2.41,3.54c-.04,.08-.08,.16-.07,.24,.01,.1,.1,.17,.17,.23,.29,.24,.58,.48,.88,.72,0,0,0,0,0,0,.14,.06,.19-.03,.22-.12,.15-.37,.29-.81,.43-1.28l-.1-.57,.23,.09c.22-.82,.4-1.65,.52-2.2l-.2,1.01,.37,.33-.4,.32,.36,1.2-.27,.51,.21,.65,2.16,2.66h1.21l2.12-2.67,.14-.63-.25-.53,.36-1.19-.34-.28,.39-.38-.2-1.01c.12,.55,.3,1.38,.52,2.2l.23-.09-.1,.57c.13,.46,.28,.91,.43,1.28,.03,.08,.08,.18,.22,.12,0,0,0,0,0,0,.29-.24,.58-.48,.88-.72,.08-.06,.16-.13,.17-.23,.01-.09-.03-.17-.07-.24Z"/><path class="c" d="M8.64,11.98h-1.26l-2.18-2.69-.22-.69,.27-.52-.37-1.22,.59-.48,.09-.23-.27-.58,1.57-1.12,.24,.31,.04-.52,.37-.23h1.08s2.09,1.58,2.09,1.58l-.28,.56,.07,.23,.6,.49-.37,1.21,.25,.52-.15,.66h0s-2.14,2.7-2.14,2.7Zm-1.21-.11h1.16l2.1-2.64,.13-.6-.25-.53,.36-1.18-.56-.46-.1-.3,.26-.52-2-1.51h-1l-.3,.18-.06,.75-.34-.45-1.41,1.01,.25,.54-.12,.3-.55,.45,.36,1.19-.27,.51,.2,.62,2.13,2.63Z"/><path class="c" d="M6.02,6.29c.03-.1-.19-.48,.17-.71,.18-.06,.41-.08,.58,.1s.87,.99,.87,1.15-.06,.17-.06,.17c0,0-1.42,.6-1.76,.6s-.44-.33-.34-.58,.5-.63,.53-.72Z"/><path class="c" d="M7.66,8.06s-.39,.09-.41,.37,.23,.37,.43,.37,.27-.16,.31-.15l.44,.11s.29-.01,.29-.33-.38-.43-.38-.43c0,0-.28-.41-.36-.41-.09,0-.33,.47-.33,.47Z"/><path class="c" d="M10,6.35c-.03-.1,.19-.48-.17-.71-.18-.06-.41-.08-.58,.1s-.87,.99-.87,1.15c0,.16,.06,.17,.06,.17,0,0,1.42,.6,1.76,.6s.44-.33,.34-.58-.5-.63-.53-.72Z"/><path class="c" d="M7.32,5.36c.21,.13,.35,.35,.39,.6,0,.02,0,.04-.03,.04-.02,0-.04,0-.04-.03-.01-.24-.13-.46-.32-.61h0Z"/><path class="c" d="M8.67,5.36c-.19,.15-.31,.37-.32,.61,0,.04-.07,.04-.07,0,.04-.24,.18-.47,.39-.6h0Z"/><path class="c" d="M7.26,7.84c-.31,.11-.54,.43-.48,.77,.02,.11,.05,.21,.09,.32-.04-.04-.07-.09-.1-.14-.19-.39,.06-.86,.49-.94h0Z"/><path class="c" d="M7.48,7.97c-.33,.04-.62,.3-.64,.64,0,.11,0,.22,.02,.33-.03-.05-.05-.1-.07-.16-.1-.42,.25-.83,.68-.81h0Z"/><path class="c" d="M8.78,7.81c.42,.08,.68,.55,.48,.94-.03,.05-.06,.1-.1,.14,.04-.11,.08-.21,.09-.32,.06-.33-.16-.66-.48-.77h0Z"/><path class="c" d="M8.55,7.93c.43-.01,.78,.39,.68,.81-.01,.06-.03,.11-.07,.16,.02-.11,.03-.22,.02-.33-.01-.34-.3-.61-.64-.64h0Z"/><g><path class="c" d="M7.67,10.91v-.11c0-.07-.05-.12-.12-.12h0c-.07,0-.12,.05-.12,.12v.06s-.02,.05-.04,.06l-.28,.08s-.06,0-.07-.04l-.74-1.82s.02-.09,.07-.08l.52,.14s.03,.01,.03,.02l.26,.35s.03,.02,.05,.02h.33s0,0,0,0l.41,.03s0,0,.01,0l.36-.03s0,0,0,0h.31s.04,0,.05,0l.31-.34s.01-.01,.02-.01l.42-.19s.1,.02,.08,.08l-.67,1.85s-.04,.05-.08,.04l-.31-.1s-.04-.03-.04-.06v-.07c0-.07-.05-.12-.12-.12s-.12,.05-.12,.12v.11"/><path class="c" d="M7.72,10.91s0-.07,0-.11c0-.07-.04-.12-.11-.14s-.15,0-.2,.06c-.04,.05-.03,.09-.04,.15,0,.01,0,.02,0,.03,0,0,.01,0,0,0s-.04,.01-.05,.01l-.15,.04s-.04,.01-.06,.02c0,0,0,0-.01,0,0,0,0,0,0,0,.01,0,0-.01,0-.02,0,0,0-.01-.01-.02-.13-.3-.24-.6-.37-.9s-.25-.59-.36-.89c0,0,0,0,0-.01,0-.01,0-.03,0-.04,0-.01,.02,0-.01,0,0,0,0,0,0,0,0,0,0,0,0,0,.01,0,.03,0,.04,.01l.29,.08,.13,.04s.04,0,.06,.02c.02,.01,.04,.05,.05,.06l.09,.12c.04,.06,.09,.13,.14,.18s.17,.03,.24,.03c.16,0,.31,.01,.46,.02,.06,0,.11,.01,.17,0l.28-.03s.03,0,.05,0c0,0,0,0,.01,0,0,0,0,0,0,0,.04,0,.07,0,.11,0h.15s.08,.01,.12,0c.03-.01,.04-.04,.06-.06l.09-.1c.06-.06,.12-.13,.18-.19,.03-.03,.1-.05,.15-.07l.25-.12s.01,0,.02,0c-.02,0,.01,.02,.01,.03s0,.02,0,.03c0,0,0,.01,0,.02l-.05,.13-.18,.5-.39,1.08s-.03,.07-.04,.11c0,0,0,0,0,0,0,0,.01,0,0,0-.04-.01-.07-.02-.11-.04l-.15-.05s-.06-.01-.07-.06c0-.06,0-.11-.03-.15-.05-.05-.13-.06-.2-.03-.06,.02-.11,.07-.11,.14,0,.04,0,.07,0,.11,0,.04,.11,.02,.11-.01s0-.07,0-.11c0-.03,.01-.07,.04-.08,.04,0,.07,.04,.08,.07,.01,.05-.01,.1,.02,.14,.02,.03,.06,.04,.09,.05,.09,.03,.17,.06,.26,.08,.07,.02,.14-.02,.17-.09,.12-.31,.23-.62,.34-.93s.22-.6,.32-.9c.03-.1-.08-.13-.16-.1s-.15,.07-.22,.1c-.07,.03-.14,.06-.2,.1-.03,.01-.04,.04-.06,.06l-.1,.11-.11,.12-.04,.05s-.03,.02-.03,.03c0,0,0,0,0,0,0,0,.02,0,.01,0-.01,0-.03,0-.05,0h-.16c-.16-.02-.31,0-.46,.02-.05,0-.11,0-.17-.01-.09,0-.17-.02-.26-.02-.07,0-.14,0-.21,0-.04,0-.08,0-.12,0-.02,0-.03-.02-.05-.04l-.17-.24s-.07-.11-.13-.13c-.17-.05-.33-.09-.5-.13-.08-.02-.2,.03-.17,.13,.01,.03,.03,.06,.04,.09l.18,.45,.45,1.12,.05,.13s0,.02,0,.02c.02,.05,.08,.06,.13,.05,.08-.02,.16-.05,.25-.07,.04-.01,.09-.03,.11-.07s0-.1,.02-.14c.04-.08,.12,0,.12,.06,0,.04,0,.07,0,.11,0,.04,.11,.02,.11-.01h0Z"/></g><g><path class="d" d="M7.56,9.61v.26s-.04,.09-.09,.09h-.19s-.09-.04-.09-.09v-.26"/><path class="c" d="M7.48,10.02h-.19c-.08,0-.14-.06-.14-.14v-.26s.02-.05,.05-.05,.05,.02,.05,.05v.26s.01,.03,.03,.03h.19s.03-.01,.03-.03v-.26s.02-.05,.05-.05,.05,.02,.05,.05v.26c0,.08-.06,.14-.14,.14Z"/></g><g><path class="d" d="M7.99,9.61v.26s-.04,.09-.09,.09h-.19s-.09-.04-.09-.09v-.26"/><path class="c" d="M7.9,10.02h-.19c-.08,0-.14-.06-.14-.14v-.26s.02-.05,.05-.05,.05,.02,.05,.05v.26s.01,.03,.03,.03h.19s.03-.01,.03-.03v-.26s.02-.05,.05-.05,.05,.02,.05,.05v.26c0,.08-.06,.14-.14,.14Z"/></g><g><path class="d" d="M8.36,9.61v.26s-.04,.09-.09,.09h-.19s-.09-.04-.09-.09v-.26"/><path class="c" d="M8.27,10.02h-.19c-.08,0-.14-.06-.14-.14v-.26s.02-.05,.05-.05,.05,.02,.05,.05v.26s.01,.03,.03,.03h.19s.03-.01,.03-.03v-.26s.02-.05,.05-.05,.05,.02,.05,.05v.26c0,.08-.06,.14-.14,.14Z"/></g><g><path class="d" d="M8.76,9.61v.26s-.04,.09-.09,.09h-.19s-.09-.04-.09-.09v-.26"/><path class="c" d="M8.67,10.02h-.19c-.08,0-.14-.06-.14-.14v-.26s.02-.05,.05-.05,.05,.02,.05,.05v.26s.01,.03,.03,.03h.19s.03-.01,.03-.03v-.26s.02-.05,.05-.05,.05,.02,.05,.05v.26c0,.08-.06,.14-.14,.14Z"/></g><path class="c" d="M5.32,7.96c.07,.28,.26,.53,.56,.57-.07,0-.15-.02-.22-.04-.22-.08-.37-.28-.45-.5,0,0,.11-.03,.11-.03h0Z"/><path class="c" d="M10.69,8.1c-.11,.27-.39,.45-.68,.44,.14-.01,.27-.07,.37-.15,.1-.08,.17-.2,.21-.32l.1,.04h0Z"/><g><polygon class="d" points="6.91 9.25 7.19 9.57 6.52 10.48 6.77 9.38 6.91 9.25"/><path class="c" d="M6.52,10.54s-.02,0-.02,0c-.02-.01-.04-.04-.03-.06l.25-1.1s0-.02,.02-.03l.14-.13s.03-.02,.04-.01c.01,0,.03,0,.04,.02l.28,.32s.02,.05,0,.07l-.67,.91s-.03,.02-.04,.02Zm.3-1.13l-.19,.83,.48-.66-.21-.24-.08,.08Z"/></g><g><polygon class="d" points="9.04 9.3 8.76 9.62 9.43 10.53 9.18 9.43 9.04 9.3"/><path class="c" d="M9.43,10.59s-.03,0-.04-.02l-.67-.91s-.01-.05,0-.07l.28-.32s.02-.02,.04-.02c.01,0,.03,0,.04,.01l.14,.13s.01,.02,.02,.03l.25,1.1s0,.05-.03,.06c0,0-.01,0-.02,0Zm-.6-.96l.48,.66-.19-.83-.08-.08-.21,.24Z"/></g><path class="c" d="M7.4,9.67c-.14,0-.25-.07-.28-.09-.02-.02-.03-.05-.01-.08,.02-.02,.05-.03,.08-.01,.03,.02,.13,.08,.25,.07,.05,0,.09-.02,.13-.04,.03-.01,.06,0,.07,.02,.01,.03,0,.06-.02,.07-.05,.03-.11,.05-.17,.05-.02,0-.03,0-.05,0Z"/><path class="c" d="M7.81,9.7c-.13,0-.22-.07-.25-.09-.02-.02-.03-.05,0-.08,.02-.02,.05-.03,.08,0,.02,.02,.11,.08,.22,.06,.04,0,.07-.02,.11-.04,.03-.02,.06,0,.08,.02,.02,.03,0,.06-.02,.08-.05,.03-.1,.05-.15,.05-.02,0-.03,0-.05,0Z"/><path class="c" d="M8.19,9.72c-.11,0-.2-.05-.24-.08-.02-.02-.03-.05-.01-.08,.02-.02,.05-.03,.08-.01,.02,.02,.11,.07,.22,.05,.04,0,.07-.02,.1-.05,.02-.02,.06-.01,.08,.01,.02,.02,.01,.06-.01,.08-.04,.03-.09,.05-.15,.06-.02,0-.05,0-.07,0Z"/><path class="c" d="M8.56,9.71c-.1,0-.18-.04-.22-.06-.03-.02-.03-.05-.02-.08,.02-.03,.05-.03,.08-.02,.03,.02,.12,.07,.22,.04,.04,0,.07-.03,.1-.05,.02-.02,.06-.02,.08,0,.02,.02,.02,.06,0,.08-.04,.04-.09,.06-.14,.07-.03,0-.06,.01-.09,.01Z"/><path class="c" d="M7.59,9.27l.05,.28s-.01,.06-.04,.07c-.04,0-.07-.03-.07-.07,0,0,.05-.28,.05-.28h0Z"/><path class="c" d="M7.99,8.38l.05,1.2s-.02,.06-.05,.06c-.03,0-.06-.03-.06-.06,0,0,.05-1.2,.05-1.2h0Z"/><polygon class="c" points="8.05 4.18 7.99 5.97 7.93 4.18 7.93 4.12 8.05 4.12 8.05 4.18 8.05 4.18"/><path class="c" d="M8.37,9.3l.05,.28s-.01,.06-.04,.07c-.04,0-.07-.03-.07-.07,0,0,.05-.28,.05-.28h0Z"/><path class="c" d="M8.45,10.96c-.07-.04-.17-.03-.22,.03-.05,.05-.13-.02-.08-.08,.09-.07,.24-.04,.31,.05h0Z"/><g><path class="d" d="M7.94,10.91v-.17s.03-.06,.06-.06h.12s.06,.03,.06,.06v.17"/><path class="c" d="M8.18,10.97s-.05-.02-.05-.05v-.17h-.12s0,.17,0,.17c0,.03-.02,.05-.05,.05s-.05-.02-.05-.05v-.17c0-.06,.05-.11,.11-.11h.12c.06,0,.11,.05,.11,.11v.17s-.02,.05-.05,.05Z"/></g><path class="c" d="M7.66,10.97c-.06-.06-.15-.08-.23-.04,.06-.08,.19-.1,.28-.06,.09,.03,.01,.16-.06,.09h0Z"/><path class="c" d="M8.2,11.14s-.06-.2-.07-.24c0,0,.14,0,.14,0-.01,.04-.06,.2-.07,.24h0Z"/><path class="c" d="M7.94,11.12s-.06-.2-.07-.24h.14s-.06,.2-.07,.24h0s0,0,0,0h0Z"/><path class="c" d="M7.68,11.12s-.06-.2-.07-.24h.14s-.06,.2-.07,.24c0,0,0,0,0,0,0,0,0,0,0,0h0Z"/><path class="c" d="M8.2,11s-.02,0-.03-.01c-.01-.01-.06-.05-.13-.04-.02,0-.04,.01-.06,.02-.03,.02-.06,0-.08-.02-.02-.03,0-.06,.02-.08,.03-.02,.07-.03,.11-.04,.1-.01,.18,.04,.21,.06,.02,.02,.03,.05,0,.08-.01,.01-.03,.02-.04,.02Z"/><g><path class="d" d="M7.69,10.91v-.17s.03-.06,.06-.06h.12s.06,.03,.06,.06v.17"/><path class="c" d="M7.93,10.97s-.05-.02-.05-.05v-.17h-.12s0,.17,0,.17c0,.03-.02,.05-.05,.05s-.05-.02-.05-.05v-.17c0-.06,.05-.11,.11-.11h.12c.06,0,.11,.05,.11,.11v.17s-.02,.05-.05,.05Z"/></g><path class="c" d="M7.94,10.98s-.02,0-.03-.01c-.01-.01-.07-.04-.13-.03-.02,0-.04,.01-.06,.03-.02,.02-.06,.01-.08-.01-.02-.02-.01-.06,.01-.08,.03-.02,.07-.04,.1-.05,.1-.02,.18,.03,.21,.05,.02,.02,.03,.05,.01,.08-.01,.02-.03,.02-.04,.02Z"/><polygon class="c" points="5.33 6.64 4.92 6.28 4.99 6.2 5.33 6.5 5.46 6.39 5.55 6.16 5.29 5.58 5.94 5.1 5.26 4.61 5.33 4.52 6.12 5.1 5.42 5.62 5.67 6.16 5.55 6.46 5.33 6.64"/><path class="c" d="M6.28,5.26c.8-.01,1.26,.66,1.36,1.39,0,.05,.01,.1,.02,.15h-.3c.02-.34-.04-.7-.21-.99-.18-.31-.5-.51-.86-.55h0Z"/><path class="c" d="M9.74,5.36c-.36,.04-.68,.24-.86,.55-.17,.29-.23,.65-.21,.99,0,0-.3,0-.3,0,0-.05,0-.1,.02-.15,.1-.73,.56-1.4,1.36-1.39h0Z"/><path class="c" d="M6.5,7.81c.4-.15,1.19-.52,1.04-1.05,0,0,.11-.03,.11-.03,.13,.6-.68,.94-1.14,1.08h0Z"/><path class="c" d="M6.34,7.64c.41-.1,1.24-.38,1.15-.92,0,0,.11-.02,.11-.02,.07,.61-.79,.85-1.26,.94h0Z"/><path class="c" d="M6.28,7.56c.41-.1,1.24-.38,1.15-.92,0,0,.11-.02,.11-.02,.07,.61-.79,.85-1.26,.94h0Z"/><path class="c" d="M9.54,7.92c-.46-.14-1.28-.47-1.14-1.08,0,0,.11,.03,.11,.03-.15,.52,.64,.9,1.04,1.05h0Z"/><path class="c" d="M9.7,7.75c-.47-.09-1.32-.33-1.26-.94,0,0,.11,.02,.11,.02-.09,.54,.74,.82,1.15,.92h0Z"/><path class="c" d="M9.76,7.67c-.47-.09-1.32-.33-1.26-.94,0,0,.11,.02,.11,.02-.09,.54,.74,.82,1.15,.92h0Z"/><path class="c" d="M5.42,8.25c-.08,.09-.14,.2-.11,.33,0,.04,.03,.08,.05,.11-.07-.06-.1-.15-.11-.24,0-.09,.03-.18,.07-.26,0,0,.09,.06,.09,.06h0Z"/><path class="c" d="M5.5,8.34c-.08,.09-.14,.2-.11,.33,0,.04,.03,.08,.05,.11-.07-.06-.1-.15-.11-.24,0-.09,.03-.18,.07-.26,0,0,.09,.06,.09,.06h0Z"/><path class="c" d="M5.6,8.43c-.08,.09-.14,.2-.11,.33,0,.04,.03,.08,.05,.11-.07-.06-.1-.15-.11-.24,0-.09,.03-.18,.07-.26,0,0,.09,.06,.09,.06h0Z"/><path class="c" d="M5.71,8.5c-.08,.09-.14,.2-.11,.33,0,.04,.03,.08,.05,.11-.07-.06-.1-.15-.11-.24,0-.09,.03-.18,.07-.26,0,0,.09,.06,.09,.06h0Z"/><path class="c" d="M5.52,6.36c-.16-.07-.3-.25-.25-.43-.01,.17,.13,.3,.29,.33,0,0-.04,.1-.04,.1h0Z"/><path class="c" d="M5.44,6.48c-.16-.08-.29-.26-.23-.44-.02,.17,.12,.3,.28,.34,0,0-.05,.1-.05,.1h0Z"/><path class="c" d="M10.62,8.2c.09,.15,.11,.38-.03,.5,.11-.14,.06-.32-.06-.44,0,0,.09-.06,.09-.06h0Z"/><path class="c" d="M10.54,8.3c.09,.15,.11,.38-.03,.5,.11-.14,.06-.32-.06-.44,0,0,.09-.06,.09-.06h0Z"/><path class="c" d="M10.44,8.39c.09,.15,.11,.38-.03,.5,.11-.14,.06-.32-.06-.44,0,0,.09-.06,.09-.06h0Z"/><path class="c" d="M10.33,8.45c.09,.15,.11,.38-.03,.5,.11-.14,.06-.32-.06-.44,0,0,.09-.06,.09-.06h0Z"/><path class="c" d="M7.97,6.43c.04,.15,.04,.31,.04,.46,0,.15-.01,.31-.04,.46-.02-.15-.03-.31-.04-.46,0-.15,0-.31,.04-.46h0Z"/><path class="c" d="M7.98,11.3c.04,.11,.04,.22,.04,.34,0,.11-.01,.22-.04,.34-.02-.11-.03-.22-.04-.34,0-.11,0-.23,.04-.34h0Z"/><polygon class="c" points="2.98 8.55 3.28 8.18 3.08 8.61 2.98 8.55 2.98 8.55"/><path class="c" d="M3.33,8.88c.13-.2,.26-.39,.41-.57-.07,.16-.15,.32-.23,.47-.03,.05-.06,.1-.09,.15l-.09-.06h0Z"/><path class="c" d="M3.56,9.07c.15-.28,.32-.57,.49-.83-.03,.07-.06,.15-.1,.22-.1,.21-.21,.44-.33,.64,0,0-.06-.03-.06-.03h0Z"/><path class="c" d="M3.14,8.77c.25-.45,.54-.91,.81-1.35-.06,.12-.12,.23-.18,.35-.11,.2-.26,.49-.38,.69-.06,.11-.13,.23-.2,.34l-.06-.04h0Z"/><path class="c" d="M3.94,9.38s-.07,0-.1-.02c0,0-.01,0-.02,0l-.88-.72c-.09-.07-.18-.15-.19-.27-.02-.1,.03-.19,.08-.28,.73-1.32,2.4-3.52,2.42-3.54,.02-.02,.04-.03,.07-.02,.02,.01,.04,.04,.03,.06,0,.01-.28,1.46-.65,2.87,0,.01-.01,.03-.03,.03-.01,0-.03,0-.04,0l-.14-.05,.08,.47s0,.02,0,.02c-.15,.51-.29,.94-.43,1.28-.02,.04-.05,.13-.13,.16-.02,0-.04,.01-.06,.01Zm-.05-.12s.06,.02,.07,0c.03-.01,.05-.06,.07-.1,.14-.34,.28-.76,.42-1.26l-.09-.56s0-.04,.02-.05c.02-.01,.04-.02,.05,0l.17,.06c.28-1.05,.5-2.11,.59-2.57-.42,.56-1.66,2.25-2.27,3.34-.04,.07-.08,.14-.06,.21,.01,.08,.08,.14,.15,.2l.87,.71Z"/><path class="c" d="M7.34,8.3c-.1,.19-.08,.44,.12,.56,.06,.04,.13,.06,.21,.06-.07,.01-.15,0-.22-.03-.24-.11-.28-.42-.13-.62,0,0,.03,.02,.03,.02v.02h0Z"/><path class="c" d="M7.34,8.3c-.19,.25-.09,.6,.24,.65-.07,0-.15-.02-.21-.06-.22-.14-.22-.45-.04-.63,0,0,.03,.02,.03,.02h-.01Z"/><path class="c" d="M7.38,8.26c-.1,.19-.08,.44,.12,.56,.06,.04,.13,.06,.21,.06-.07,.01-.15,0-.22-.03-.24-.11-.28-.42-.13-.62,0,0,.03,.02,.03,.02v.02h0Z"/><path class="c" d="M7.36,8.27c-.11,.3,.09,.6,.42,.55-.07,.02-.15,.03-.22,0-.25-.07-.34-.37-.22-.59,0,0,.03,.01,.03,.01v.02h0Z"/><path class="c" d="M8.65,8.25c.2,.28,0,.69-.36,.63,.07,0,.15-.02,.21-.06,.2-.12,.22-.38,.11-.57,0,0,.03-.02,.03-.02h.01Z"/><path class="c" d="M8.66,8.25c.24,.25,.1,.68-.26,.68,.07-.01,.14-.04,.2-.09,.19-.15,.17-.41,.03-.58,0,0,.03-.02,.03-.02h.01Z"/><path class="c" d="M8.61,8.21c.2,.28,0,.69-.36,.63,.07,0,.15-.02,.21-.06,.2-.12,.22-.38,.11-.57,0,0,.03-.02,.03-.02h.01Z"/><path class="c" d="M8.63,8.23c.16,.31-.11,.68-.45,.57,.07,.01,.15,0,.21-.02,.22-.09,.28-.34,.2-.55,0,0,.03-.01,.03-.01v.02h0Z"/><polygon class="c" points="5.42 5.26 5.17 4.93 5.26 4.88 5.42 5.26 5.42 5.26"/><polygon class="c" points="5.47 5.03 5.22 4.7 5.31 4.65 5.47 5.03 5.47 5.03"/><path class="c" d="M5.45,5.14c-.06-.06-.11-.13-.13-.21,.06,.06,.11,.13,.13,.21h0Z"/><polygon class="c" points="10.67 6.64 10.45 6.46 10.33 6.16 10.58 5.62 9.88 5.1 10.67 4.52 10.74 4.61 10.06 5.1 10.71 5.58 10.45 6.16 10.54 6.39 10.67 6.5 11.01 6.2 11.08 6.28 10.67 6.64"/><path class="c" d="M10.44,6.26c.12-.03,.23-.09,.27-.21,.02-.04,.02-.08,.02-.12,.02,.09,0,.18-.04,.26-.05,.08-.13,.14-.21,.18,0,0-.04-.1-.04-.1h0Z"/><path class="c" d="M10.52,6.38c.12-.03,.22-.1,.27-.22,.01-.04,.02-.08,.01-.12,.03,.08,.01,.18-.03,.26-.04,.08-.12,.14-.2,.19,0,0-.05-.1-.05-.1h0Z"/><polygon class="c" points="12.92 8.61 12.72 8.18 13.02 8.55 12.92 8.61 12.92 8.61"/><path class="c" d="M12.58,8.93c-.12-.2-.23-.41-.32-.62,.11,.13,.22,.28,.32,.42,.03,.05,.07,.1,.1,.15l-.09,.06h0Z"/><path class="c" d="M12.37,9.1c-.15-.28-.3-.57-.43-.86,.05,.07,.09,.13,.13,.2,.12,.2,.25,.42,.36,.63,0,0-.06,.03-.06,.03h0Z"/><path class="c" d="M12.79,8.8c-.26-.45-.52-.93-.75-1.39,.07,.11,.14,.22,.21,.33,.12,.19,.29,.48,.41,.67,.07,.11,.13,.23,.2,.34l-.06,.04h0Z"/><path class="c" d="M12.06,9.38s-.04,0-.06-.01c-.08-.03-.11-.11-.13-.16-.14-.34-.28-.77-.43-1.28,0,0,0-.02,0-.02l.08-.47-.14,.05s-.03,0-.04,0c-.01,0-.02-.02-.03-.03-.38-1.41-.65-2.85-.65-2.87,0-.02,0-.05,.03-.06,.02-.01,.05,0,.07,.02,.02,.02,1.68,2.22,2.42,3.54,.05,.09,.09,.18,.08,.28-.02,.11-.1,.19-.19,.27l-.88,.72s-.01,0-.02,0c-.04,.02-.07,.02-.1,.02Zm-.51-1.47c.15,.5,.29,.92,.42,1.26,.02,.04,.04,.08,.07,.1,.02,0,.04,0,.07,0l.87-.71c.07-.06,.14-.12,.15-.2,.01-.07-.02-.14-.06-.21-.6-1.09-1.85-2.78-2.27-3.34,.09,.46,.31,1.52,.59,2.57l.17-.06s.04,0,.05,0c.02,.01,.02,.03,.02,.05l-.09,.56Z"/><polygon class="c" points="10.58 5.26 10.74 4.88 10.83 4.93 10.58 5.26 10.58 5.26"/><polygon class="c" points="10.53 5.03 10.69 4.65 10.78 4.7 10.53 5.03 10.53 5.03"/><path class="c" d="M10.55,5.14c.03-.08,.07-.16,.13-.21-.02,.08-.07,.15-.13,.21h0Z"/><path class="c" d="M7.73,5.35c.02,.08,.03,.17,.01,.25-.03-.08-.03-.17-.01-.25h0Z"/><path class="c" d="M7.8,5.24c.02,.08,.03,.17,.01,.25-.03-.08-.03-.17-.01-.25h0Z"/><path class="c" d="M8.17,5.48c.02,.08,.03,.17,.01,.25-.03-.08-.03-.17-.01-.25h0Z"/><path class="c" d="M8.24,5.34c.02,.08,.03,.17,.01,.25-.03-.08-.03-.17-.01-.25h0Z"/><path class="c" d="M7.75,9.31c.02,.06,.02,.12,0,.17-.02-.06-.02-.12,0-.17h0Z"/><path class="c" d="M7.81,9.39s.02,.08,0,.12c-.02-.04-.02-.08,0-.12h0Z"/><path class="c" d="M8.21,9.31c.02,.06,.02,.12,0,.17-.02-.06-.02-.12,0-.17h0Z"/><path class="c" d="M8.15,9.4s.02,.08,0,.12c-.02-.04-.02-.08,0-.12h0Z"/><path class="c" d="M8.66,4.6l.57,.35s.03,.05,.02,.07c-.02,.03-.05,.03-.08,.01,0,0-.51-.43-.51-.43h0Z"/><path class="c" d="M6.27,8.66c-.09,.21-.07,.49,.13,.62,0,0-.04,.06-.04,.06-.2-.16-.21-.47-.09-.68h0Z"/><path class="c" d="M9.52,8.76c.13,.21,.12,.52-.09,.68,0,0-.04-.06-.04-.06,.2-.13,.23-.41,.13-.62h0Z"/><path class="c" d="M5.84,8.64c-.06,.37-.02,.76,.2,1.07,.07,.1,.14,.2,.22,.31-.14-.03-.25-.11-.34-.22-.25-.32-.27-.8-.08-1.15h0Z"/><path class="c" d="M10.14,8.73c.19,.35,.18,.83-.08,1.15-.09,.11-.2,.19-.34,.22,.08-.11,.15-.21,.22-.31,.22-.31,.25-.7,.2-1.07h0Z"/></g><g><rect class="d" x="7.82" y="1.29" width=".35" height=".35"/><rect class="d" x="5.14" y="1.86" width=".35" height=".35" transform="translate(-.37 2.34) rotate(-24)"/><rect class="d" x="2.93" y="3.47" width=".35" height=".35" transform="translate(-1.68 3.51) rotate(-48)"/><rect class="d" x="1.56" y="5.84" width=".35" height=".35" transform="translate(-4.53 5.81) rotate(-72)"/><rect class="d" x="1.27" y="8.57" width=".35" height=".35" transform="translate(-7.1 11.1) rotate(-96)"/><rect class="d" x="2.12" y="11.17" width=".35" height=".35" transform="translate(-6.39 19.01) rotate(-120)"/><rect class="d" x="3.95" y="13.21" width=".35" height=".35" transform="translate(-.4 26.64) rotate(-144)"/><rect class="d" x="6.45" y="14.32" width=".35" height=".35" transform="translate(10.1 30.06) rotate(-168)"/><rect class="d" x="9.19" y="14.32" width=".35" height=".35" transform="translate(21.55 26.74) rotate(168)"/><rect class="d" x="11.7" y="13.21" width=".35" height=".35" transform="translate(29.35 17.24) rotate(144)"/><rect class="d" x="13.53" y="11.17" width=".35" height=".35" transform="translate(30.39 5.16) rotate(120)"/><rect class="d" x="14.38" y="8.57" width=".35" height=".35" transform="translate(24.77 -4.82) rotate(96)"/><rect class="d" x="14.09" y="5.84" width=".35" height=".35" transform="translate(15.58 -9.41) rotate(72)"/><rect class="d" x="12.72" y="3.47" width=".35" height=".35" transform="translate(6.98 -8.38) rotate(48)"/><rect class="d" x="10.5" y="1.86" width=".35" height=".35" transform="translate(1.75 -4.17) rotate(24)"/></g></svg>