<?xml version="1.0" encoding="utf-8"?>
<!-- Generator: Adobe Illustrator 26.5.0, SVG Export Plug-In . SVG Version: 6.00 Build 0)  -->
<svg version="1.1" id="Layer_1" xmlns="http://www.w3.org/2000/svg" xmlns:xlink="http://www.w3.org/1999/xlink" x="0px" y="0px"
	 viewBox="0 0 1283 349" style="enable-background:new 0 0 1283 349;" xml:space="preserve">
<style type="text/css">
	.st0{fill:#FFFFFF;}
	.st1{fill:#FADB47;}
	.st2{fill:#E2AE39;}
	.st3{fill:#333333;}
</style>
<g>
	<path class="st0" d="M430.83,131.57c0.04,0.67,0.1,1.13,0.1,1.6c0.01,3.33,0.01,6.67,0,10.01c0,0.54-0.09,1.08-0.12,1.63
		c-0.04,0.75-0.15,1.5-0.1,2.24c0.2,2.93,0.1,5.84,0.03,8.77c-0.09,4.08,0.07,8.17,0.11,12.25c0.02,1.63,0.01,3.27,0.02,4.9
		c0,2.92,0.01,5.84,0,8.77c0,0.61-0.08,1.22-0.09,1.83c-0.01,1.29-0.01,2.58,0,3.87c0,0.41,0.04,0.82,0.05,1.22
		c0.02,2.65,0.05,5.31,0.03,7.96c-0.01,1.97-0.1,3.94-0.16,5.91c-0.02,0.68-0.1,1.37-0.02,2.04c0.47,3.94,0.13,7.89,0.21,11.83
		c0.1,4.9,0.08,9.8,0.12,14.7c0.01,1.12-0.31,1.54-1.4,1.54c-4.02-0.01-8.03-0.07-12.04-0.11c-0.68-0.01-1.36-0.05-2.04-0.05
		c-6.53-0.04-13.07-0.07-19.6-0.1c-0.34,0-0.68,0.02-1.02,0c-0.78-0.06-1.11-0.36-1.18-1.12c-0.05-0.54-0.03-1.09-0.03-1.63
		c0.05-8.85,0.11-17.7,0.14-26.55c0.01-4.63-0.05-9.26-0.07-13.89c-0.01-3.88,0-7.76,0-11.64c0-0.68-0.02-1.36-0.06-2.04
		c-0.02-0.41-0.12-0.89-0.61-0.91c-0.27-0.01-0.57,0.28-0.81,0.48c-0.15,0.12-0.22,0.34-0.32,0.52c-1.22,2.12-2.47,4.22-3.66,6.36
		c-2.35,4.22-4.68,8.46-7,12.7c-2.32,4.24-4.61,8.49-6.94,12.73c-1.34,2.45-2.76,4.85-4.09,7.3c-2.79,5.14-5.54,10.3-8.3,15.46
		c-0.16,0.3-0.33,0.6-0.48,0.9c-0.37,0.73-0.98,1.12-1.78,1.2c-0.75,0.07-1.5,0.11-2.24,0.12c-4.7,0.02-9.4,0.03-14.1,0.04
		c-2.25,0.01-4.5-0.03-6.74,0.05c-1.16,0.04-1.98-0.38-2.52-1.37c-0.92-1.67-1.83-3.34-2.74-5.01c-1.14-2.09-2.27-4.19-3.4-6.28
		c-2.69-4.96-5.38-9.93-8.08-14.89c-1.37-2.5-2.78-4.99-4.16-7.49c-1.28-2.32-2.52-4.67-3.82-6.99c-2.13-3.8-4.29-7.58-6.44-11.37
		c-0.5-0.89-0.98-1.79-1.52-2.65c-0.11-0.18-0.48-0.34-0.67-0.29c-0.2,0.05-0.46,0.36-0.48,0.57c-0.11,1.08-0.19,2.17-0.19,3.26
		c-0.02,5.51-0.02,11.03-0.02,16.54c0,10.96,0.01,21.54,0.01,32.5c0,0.61,0.02,1.23-0.03,1.84c-0.08,0.95-0.48,1.38-1.41,1.42
		c-1.7,0.08-3.4,0.12-5.1,0.13c-4.02,0.02-8.04,0.04-12.05,0.03c-3.54-0.01-7.08-0.05-10.62-0.07c-0.61,0-1.22,0.02-1.84,0.04
		c-0.41,0.01-0.82,0.07-1.22,0.06c-1.3-0.03-1.86-0.63-1.8-1.91c0.05-1.02,0.2-2.04,0.16-3.06c-0.12-2.85-0.33-5.7-0.5-8.55
		c-0.04-0.75-0.13-1.11-0.11-1.86c0.05-2.72,0.17-5.44,0.2-8.16c0.01-1.15-0.21-2.31-0.21-3.46c0-1.77,0.15-3.54,0.14-5.3
		c-0.02-5.04-0.1-10.07-0.15-15.11c0-0.48-0.05-0.95-0.03-1.43c0.15-2.72,0.23-5.44,0.02-8.16c-0.05-0.67,0.13-1.35,0.14-2.03
		c0.01-0.95-0.04-1.89-0.06-2.84c-0.04-1.77-0.13-3.54-0.1-5.3c0.13-7.21-0.05-14.43-0.03-21.64c0.01-3.27,0.02-6.54,0.03-9.8
		c0.01-2.33,0.44-2.71,2.79-2.54c1.15,0.08,2.31,0.13,3.47,0.13c8.79,0.02,17.57,0.03,26.36,0.03c4.97,0,9.94-0.04,14.92-0.06
		c0.34,0,0.68,0.02,1.02,0c1.76-0.1,2.87,0.63,3.7,2.26c1.61,3.15,3.46,6.17,5.19,9.25c0.63,1.13,1.22,2.28,1.79,3.44
		c1.86,3.79,4.36,7.21,6.36,10.93c1.32,2.46,2.77,4.84,4.15,7.27c2.9,5.08,5.79,10.17,8.68,15.25c0.24,0.41,0.5,0.81,0.8,1.18
		c0.39,0.49,0.99,0.57,1.42,0.11c0.46-0.49,0.88-1.04,1.21-1.62c1.48-2.6,2.89-5.24,4.37-7.85c1.34-2.37,2.75-4.7,4.11-7.06
		c0.85-1.48,1.68-2.96,2.46-4.47c2.71-5.19,5.59-10.28,8.61-15.3c1.93-3.2,3.52-6.61,5.28-9.91c0.45-0.84,0.99-1.63,1.44-2.46
		c0.44-0.8,1.14-1.14,1.99-1.24c0.47-0.05,0.95-0.05,1.43-0.05c2.32,0,4.64-0.1,6.95,0.05c5.24,0.35,10.48,0.19,15.72,0.28
		s10.49-0.04,15.73-0.06c3.75-0.01,7.49,0,11.24,0.02C429.71,131.38,430.17,131.48,430.83,131.57z"/>
	<path class="st0" d="M527.73,229.24c-2.73,0.7-5.41,1.58-8.24,1.82c-1.27,0.11-2.52,0.44-3.79,0.6c-1.27,0.16-2.54,0.25-3.81,0.32
		c-2.08,0.13-4.17,0.24-6.25,0.34c-0.87,0.04-1.76,0.15-2.62,0.02c-2.55-0.38-5.11-0.13-7.66-0.12c-2.89,0-5.78,0.18-8.67,0.19
		c-2.69,0.02-5.37-0.09-8.06-0.12c-1.14-0.01-2.29,0.08-3.43,0.07c-2.08-0.02-4.17-0.13-6.25-0.12c-4.17,0.02-8.34,0.1-12.52,0.14
		c-2.15,0.02-4.3,0.02-6.45,0.03c-0.13,0-0.27,0-0.4,0c-2.67-0.07-2.53-0.74-2.54-2.62c-0.01-3.23-0.01-6.46-0.04-9.68
		c-0.01-0.93-0.14-1.87-0.2-2.8c-0.02-0.33-0.07-0.68,0-1c0.45-2,0.29-4.01,0.07-6.02c-0.04-0.4-0.05-0.8-0.04-1.21
		c0.06-2.55,0.19-5.1,0.2-7.65c0.01-6.53-0.04-13.05-0.05-19.58c0-1.88,0.09-3.77,0.07-5.65c-0.01-1.28-0.15-2.55-0.21-3.83
		c-0.03-0.6-0.02-1.21,0-1.81c0.03-0.87,0.09-1.74,0.11-2.62c0.05-2.35-0.15-4.69,0-7.05c0.12-1.8-0.11-3.63-0.13-5.44
		c-0.02-1.14,0.06-2.28,0.09-3.41c0.01-0.47,0.06-0.95-0.03-1.4c-0.3-1.54-0.2-3.08-0.16-4.63c0.06-1.75,0.04-3.5,0.08-5.25
		c0.03-1.54,0.12-3.09,0.14-4.64c0.01-0.87-0.06-1.75-0.07-2.62c0-0.53-0.01-1.08,0.1-1.59c0.12-0.56,0.53-0.93,1.12-1.02
		c0.27-0.04,0.54-0.08,0.8-0.08c2.22,0,4.44,0.02,6.66,0.03c0.94,0,1.91,0.17,2.82-0.01c2.22-0.43,4.42-0.18,6.64-0.11
		c5.38,0.15,10.76,0.29,16.15,0.4c2.15,0.05,4.32,0.16,6.46,0.01c3.09-0.22,6.18-0.01,9.26,0.01c2.76,0.02,5.52,0,8.28,0.08
		c1.27,0.04,2.54,0.36,3.81,0.37c5.58,0.05,10.89,1.64,16.3,2.71c0.84,0.17,1.65,0.56,2.46,0.86c0.44,0.16,0.86,0.43,1.31,0.53
		c3.14,0.69,5.77,2.52,8.63,3.85c0.96,0.45,1.77,1.21,2.64,1.85c1.51,1.12,3.08,2.18,4.49,3.42c1.92,1.68,3.83,3.37,5.47,5.35
		c1.58,1.92,3.07,3.9,4.51,5.93c0.54,0.76,0.89,1.65,1.35,2.46c1.67,2.95,2.66,6.17,3.72,9.36c0.08,0.25,0.16,0.52,0.2,0.78
		c0.38,2.46,0.75,4.92,1.12,7.38c0.06,0.4,0.16,0.81,0.12,1.2c-0.25,2.88,0.1,5.77-0.21,8.65c-0.17,1.6-0.15,3.22-0.23,4.84
		c-0.03,0.54,0.01,1.11-0.18,1.59c-0.65,1.65-0.8,3.4-1.16,5.11c-0.27,1.31-0.75,2.58-1.15,3.85c-1.04,3.3-2.58,6.34-4.65,9.12
		c-0.24,0.32-0.42,0.69-0.64,1.03c-1.1,1.69-2.31,3.29-3.72,4.75c-1.59,1.64-3.23,3.22-4.88,4.79c-0.48,0.46-1.03,0.85-1.58,1.23
		c-0.89,0.61-1.79,1.19-2.7,1.76c-1.65,1.04-3.45,1.79-5.27,2.5c-0.69,0.27-1.39,0.52-2.07,0.8
		C531.95,227.66,528.67,229,527.73,229.24z M496.67,198.99c2.76,0,5.52,0.03,8.27-0.01c2.82-0.04,5.65-0.05,8.24-1.46
		c0.23-0.13,0.5-0.19,0.76-0.26c2.15-0.57,3.9-1.76,5.32-3.46c0.39-0.46,0.81-0.9,1.21-1.36c1.26-1.43,2.25-3.1,2.79-4.87
		c0.79-2.56,1.34-5.22,1.07-7.95c-0.25-2.57-0.83-5.06-2.19-7.27c-0.59-0.96-1.49-1.71-2.23-2.58c-1.79-2.09-3.97-3.57-6.55-4.54
		c-2.47-0.93-5.04-1.48-7.64-1.75c-2.06-0.21-4.17-0.08-6.25-0.1c-2.35-0.01-4.72,0.14-7.05-0.06c-2.17-0.19-4.29,0.19-6.44,0.11
		c-0.86-0.03-1.4,0.52-1.56,1.31c-0.14,0.72-0.16,1.47-0.16,2.2c-0.01,6.66-0.01,13.31-0.01,19.96c0,2.96-0.03,5.92,0.03,8.87
		c0.05,2.87,0.31,3.13,3.12,3.18C490.48,199.02,493.58,198.99,496.67,198.99z"/>
	<path class="st0" d="M711.38,163.56c-0.02,0.77-0.39,1.1-1.15,1.14c-0.88,0.05-1.75,0.07-2.63,0.07c-5.2-0.01-10.4-0.04-15.6-0.04
		c-3.51,0-7.02,0-10.54,0.05c-1.8,0.02-2.16,0.43-2.16,2.14c-0.01,3.91-0.07,7.82-0.04,11.73c0.01,1.75,0.2,3.5,0.23,5.25
		c0.04,3.11,0.01,6.21,0.02,9.32c0.02,9.72,0.02,19.44,0.06,29.16c0.01,2.63,0.12,5.26,0.22,7.89c0.04,1.29-0.22,1.7-1.52,1.93
		c-0.79,0.13-1.61,0.19-2.42,0.19c-7.97,0.04-15.94,0.07-23.91,0.1c-2.16,0-4.32-0.03-6.48-0.05c-0.34,0-0.68-0.01-1.01-0.06
		c-0.8-0.12-1.17-0.49-1.3-1.31c-0.06-0.4-0.05-0.81-0.07-1.21c-0.11-1.88-0.23-3.77-0.31-5.65c-0.04-0.88-0.02-1.76,0.03-2.63
		c0.19-3.24,0.28-6.47,0.02-9.71c-0.01-0.13-0.01-0.27-0.01-0.4c0-8.03,0.01-16.06-0.02-24.08c-0.01-3.64-0.13-7.29-0.2-10.93
		c-0.06-3.1-0.11-6.21-0.17-9.31c-0.01-0.34-0.01-0.68-0.07-1c-0.11-0.75-0.43-1.11-1.16-1.19c-0.94-0.1-1.89-0.13-2.83-0.13
		c-4.59,0.01-9.19,0.03-13.77,0.08c-1.89,0.02-3.78,0.15-5.67,0.18c-2.36,0.04-4.72,0.04-7.08,0.02c-0.92-0.01-1.23-0.31-1.25-1.22
		c-0.05-2.16-0.08-4.32-0.06-6.48c0.04-5.6-0.24-11.19-0.3-16.79c-0.02-2.42,0.07-4.86,0.12-7.28c0.01-0.33,0.07-0.67,0.16-0.99
		c0.22-0.85,0.54-1.14,1.41-1.18c1.08-0.05,2.16-0.04,3.24-0.04c8.71,0.03,17.42,0.07,26.13,0.1c2.3,0.01,4.59,0,6.89,0v-0.09
		c3.17,0,6.35,0.03,9.52,0c3.85-0.04,7.69-0.14,11.54-0.17c4.39-0.04,8.78-0.08,13.17-0.02c1.82,0.02,3.62,0.28,5.44,0.43
		c0.47,0.04,0.95,0.14,1.41,0.08c3.7-0.44,7.41-0.12,11.11-0.29c2.7-0.13,5.4-0.13,8.09-0.19c0.27,0,0.54-0.02,0.81,0
		c1.35,0.08,1.82,0.48,1.88,1.86c0.09,1.68,0.06,3.37,0.07,5.06c0.03,7.56,0.05,15.12,0.08,22.68
		C711.3,161.54,711.41,162.55,711.38,163.56z"/>
	<path class="st0" d="M716.76,183.91c0.26-4.04,0.07-7.28,0.88-10.43c0.81-3.18,1.31-6.46,2.61-9.49c1.56-3.67,3.52-7.13,5.99-10.3
		c2.24-2.88,4.71-5.54,7.34-8.06c0.5-0.48,1.06-0.91,1.6-1.35c0.81-0.67,1.62-1.34,2.43-2c0.32-0.26,0.64-0.54,1-0.76
		c1.31-0.81,2.61-1.63,3.94-2.39c1.88-1.07,3.83-2.02,5.68-3.14c3.95-2.4,8.4-3.44,12.73-4.78c1.8-0.55,3.65-0.98,5.51-1.29
		c1.93-0.32,3.89-0.43,5.84-0.62c0.49-0.05,1,0.05,1.46-0.07c2.12-0.57,4.31-0.49,6.46-0.68c1.39-0.12,2.8-0.02,4.19,0.03
		c1.47,0.04,2.94,0.16,4.4,0.2c3.29,0.08,6.57,0.2,9.81,0.92c1.09,0.24,2.22,0.26,3.33,0.43c3.33,0.52,6.54,1.5,9.67,2.74
		c2.66,1.06,5.39,1.96,7.9,3.38c2.13,1.21,4.32,2.31,6.37,3.65c2.69,1.76,5.27,3.67,7.67,5.83c2.09,1.89,3.87,4.03,5.74,6.12
		c0.69,0.78,1.23,1.7,1.81,2.58c2.27,3.45,4.59,6.86,6.02,10.78c0.6,1.65,1.26,3.26,1.37,5.04c0.02,0.28,0.04,0.57,0.14,0.83
		c0.91,2.47,0.85,5.08,1.08,7.65c0.43,4.65-0.23,9.17-1.14,13.72c-1.01,5.01-2.95,9.59-5.45,14c-1.38,2.44-2.63,4.96-4.52,7.04
		c-2.58,2.84-4.93,5.93-8.08,8.21c-1.7,1.23-3.49,2.33-5.22,3.51c-2.38,1.62-5,2.8-7.61,3.99c-1.52,0.7-3.03,1.42-4.56,2.1
		c-0.44,0.2-0.92,0.35-1.39,0.44c-3.78,0.74-7.55,1.51-11.34,2.18c-3.04,0.54-6.11,0.72-9.19,0.83c-2.09,0.07-4.18,0.19-6.28,0.02
		c-1.17-0.09-2.37,0.09-3.55,0.15c-0.28,0.01-0.56,0.08-0.84,0.06c-2.37-0.12-4.75-0.23-7.12-0.39c-1.32-0.09-2.64-0.28-3.96-0.45
		c-0.97-0.13-1.93-0.31-2.9-0.47c-0.48-0.08-0.96-0.27-1.44-0.27c-3.56-0.01-6.9-1.09-10.26-2.05c-4.44-1.27-8.74-2.93-12.85-5.06
		c-1.11-0.58-2.14-1.33-3.19-2.02c-1.69-1.12-3.45-2.15-5.03-3.4c-1.57-1.25-3.16-2.46-4.45-4.1c-1.6-2.02-3.2-4.05-4.8-6.08
		c-2.82-3.58-4.64-7.64-5.7-12.04c-0.58-2.45-1.21-4.9-1.54-7.38C716.93,188.55,716.88,185.81,716.76,183.91z M782.22,161.52
		c-2.25-0.09-4.48,0.01-6.65,0.67c-1.67,0.51-3.41,0.83-5.03,1.47c-2.6,1.02-5.19,2.06-7.22,4.14c-2.71,2.77-4.69,5.9-5.35,9.77
		c-0.23,1.38-0.58,2.76-0.6,4.14c-0.05,2.62,0.62,5.1,1.86,7.44c0.9,1.7,1.95,3.23,3.43,4.46c2.87,2.39,5.91,4.48,9.55,5.55
		c0.94,0.27,1.85,0.67,2.8,0.91c1.42,0.36,2.85,0.77,4.29,0.92c3.72,0.38,7.42,0,11.07-0.67c4.86-0.89,9.21-2.81,12.62-6.54
		c0.33-0.36,0.72-0.67,1.03-1.04c0.54-0.64,1.09-1.27,1.53-1.98c1.47-2.33,2.3-4.88,2.89-7.59c0.74-3.37,0.32-6.55-0.83-9.68
		c-0.7-1.9-1.62-3.73-3.26-5.05c-0.6-0.48-1.23-0.93-1.84-1.39c-2.53-1.94-5.34-3.3-8.45-4.04
		C790.17,162.08,786.21,161.66,782.22,161.52z"/>
	<path class="st0" d="M984.15,131.83c-0.17,0.28-0.32,0.67-0.58,0.93c-1.42,1.35-2.86,2.66-4.3,3.99c-2.18,2.02-4.34,4.04-6.53,6.05
		c-2.73,2.51-5.51,4.96-8.21,7.5c-4.03,3.79-8.32,7.29-12.17,11.29c-1.4,1.46-3.01,2.71-4.48,4.1c-0.63,0.6-1.22,1.26-1.73,1.97
		c-0.69,0.96-0.66,1.66,0.08,2.57c1.96,2.41,3.93,4.8,5.92,7.19c2.85,3.42,5.7,6.83,8.56,10.24c1.52,1.81,3.05,3.6,4.58,5.4
		c0.44,0.51,0.86,1.04,1.29,1.55c1.58,1.85,3.17,3.67,4.73,5.53c2.56,3.05,5.07,6.13,7.65,9.16c1.75,2.06,3.58,4.04,5.34,6.08
		c1.89,2.19,3.89,4.29,5.63,6.63c1.12,1.51,2.5,2.83,3.75,4.24c1.3,1.46,2.6,2.92,3.88,4.4c0.17,0.19,0.25,0.46,0.42,0.81
		c-0.36,0.22-0.66,0.53-1.01,0.6c-0.72,0.15-1.47,0.25-2.2,0.24c-2.36-0.04-4.72-0.14-7.08-0.2c-1.21-0.03-2.43-0.02-3.65-0.02
		c-4.19,0-8.37-0.01-12.56,0.02c-6.01,0.04-12.02,0.07-18.03,0.22c-1.98,0.05-3.31-0.73-4.44-2.26c-1.37-1.84-2.87-3.57-4.32-5.35
		c-0.98-1.2-1.95-2.41-2.99-3.57c-2.07-2.31-4.1-4.65-6.06-7.05c-3.58-4.39-7.27-8.69-10.91-13.03c-1.56-1.86-3.06-3.77-4.63-5.62
		c-0.47-0.56-1.06-1.03-1.64-1.49c-0.47-0.38-1.01-0.36-1.52-0.06c-0.35,0.21-0.7,0.42-1,0.68c-1.6,1.34-3.21,2.67-4.77,4.06
		c-2.87,2.56-5.71,5.16-8.55,7.75c-0.9,0.82-1.73,1.71-2.63,2.52c-0.59,0.54-0.87,1.19-0.93,1.96c-0.02,0.27-0.05,0.54-0.07,0.81
		c-0.27,5.8-0.38,11.6-0.22,17.4c0.01,0.54,0.12,1.07,0.15,1.61c0.05,0.71-0.24,1.21-0.9,1.38c-0.52,0.13-1.06,0.2-1.6,0.2
		c-5.06,0.01-10.13,0.01-15.19-0.01c-2.63-0.01-5.26-0.14-7.89-0.13c-3.1,0.01-6.21,0.13-9.31,0.16c-2.83,0.03-3.03-0.19-3.01-2.94
		c0.03-5.47,0.04-10.93,0.08-16.4c0.01-1.75,0.1-3.5,0.16-5.25c0.01-0.27,0.04-0.54,0-0.81c-0.34-2.29-0.13-4.57-0.02-6.87
		c0.12-2.55,0.06-5.12-0.18-7.67c-0.06-0.6-0.06-1.21-0.06-1.82c0.01-2.63,0.02-5.26,0.04-7.89c0.01-1.89,0.07-3.78,0.07-5.67
		c0-10.6-0.01-21.19,0-31.79c0-1.89,0.08-3.77,0.02-5.66c-0.07-2.36,0.12-4.72,0.22-7.08c0.04-0.87,0.35-1.21,1.27-1.24
		c2.36-0.06,4.73-0.06,7.09-0.06c5.74,0,11.48,0,17.22,0c3.24,0,6.48-0.04,9.72,0.02c1.9,0.04,2.06,0.22,2.08,2.15
		c0.04,2.97-0.02,5.94-0.02,8.91c0,5.87,0.02,11.75,0.02,17.62c0,1.28-0.04,2.56-0.05,3.85c0,0.47-0.01,0.95,0.04,1.42
		c0.08,0.71,0.69,1,1.34,0.65c0.35-0.19,0.69-0.43,0.98-0.7c2.7-2.54,5.38-5.11,8.08-7.65c1.67-1.57,3.38-3.1,5.08-4.64
		c0.15-0.13,0.36-0.22,0.47-0.37c2-2.75,4.79-4.71,7.09-7.18c1.93-2.07,4.1-3.91,6.12-5.89c2.36-2.31,4.71-4.64,6.98-7.03
		c0.87-0.92,1.78-1.29,3.03-1.27c5.81,0.09,11.61,0.12,17.42,0.15c4.73,0.03,9.45,0.02,14.18,0.05c1.15,0.01,2.29,0.07,3.44,0.1
		c0.47,0.01,0.94,0.01,1.41,0c2.63-0.06,5.26-0.15,7.89-0.19C982.91,131.13,983.65,131,984.15,131.83z"/>
	<path class="st0" d="M1052.71,232.08c-2.83,0.07-5.67,0.18-8.5,0.21c-1.55,0.02-3.1-0.15-4.65-0.14
		c-7.56,0.06-15.12,0.15-22.68,0.22c-3.17,0.03-6.34,0.04-9.51,0.06c-0.27,0-0.54,0.03-0.81,0.01c-0.8-0.06-1.22-0.46-1.33-1.26
		c-0.04-0.26-0.02-0.54-0.01-0.81c0.07-1.55,0.18-3.09,0.2-4.64c0.06-4.25,0.1-8.5,0.1-12.76c0.01-5.2-0.03-10.39-0.04-15.59
		c-0.01-4.45-0.03-8.91-0.04-13.36c0-12.15,0.03-24.29-0.03-36.44c-0.01-2.56-0.03-5.12-0.04-7.68c-0.01-1.82-0.16-3.64-0.23-5.46
		c-0.02-0.54-0.02-1.08,0.05-1.62c0.17-1.24,0.78-1.83,1.99-1.86c1.62-0.04,3.24-0.01,4.86-0.02c1.75-0.01,3.5-0.01,5.26-0.02
		c0.54,0,1.08-0.02,1.62-0.02c4.59,0.05,9.18,0.09,13.77,0.15c1.35,0.02,2.71,0.19,4.05,0.08c2.63-0.22,5.25,0.13,7.88,0.06
		s5.26-0.02,7.9,0.01c5,0.05,9.99,0.15,14.99,0.2c1.55,0.01,3.1-0.11,4.66-0.09c3.58,0.04,7.15,0.15,10.73,0.18
		c4.52,0.03,9.05,0.01,13.57,0.01c0.27,0,0.54-0.02,0.81-0.02c1.76,0.03,2.1,0.33,2.16,2.16c0.06,1.75,0.05,3.51,0.05,5.26
		c0.01,6.48,0.02,12.96,0.03,19.44c0,1.01-0.01,2.03-0.09,3.03c-0.08,0.97-0.44,1.35-1.38,1.44c-1.41,0.12-2.83,0.23-4.24,0.24
		c-6.95,0.05-13.91,0.09-20.86,0.1c-4.05,0.01-8.1-0.04-12.15-0.06c-2.83-0.02-5.67-0.02-8.51-0.06c-1.75-0.02-3.51-0.15-5.26-0.14
		c-3.95,0.02-3.36,0.75-3.46,3.44c-0.03,0.81,0,1.62,0.06,2.43c0.05,0.65,0.35,1,0.99,1.1c0.66,0.1,1.34,0.12,2.02,0.11
		c3.04-0.03,6.07-0.13,9.11-0.11c4.46,0.03,8.91,0.15,13.36,0.19c4.39,0.03,8.77,0,13.16,0c1.01,0,2.03,0.03,3.04,0.09
		c0.76,0.05,1.25,0.52,1.41,1.24c0.12,0.52,0.17,1.07,0.17,1.61c0.03,5.6,0.04,11.2,0.06,16.8c0,0.13,0,0.27-0.02,0.4
		c-0.1,0.94-0.44,1.27-1.44,1.35c-0.27,0.02-0.54,0-0.81,0c-7.5-0.04-14.99-0.09-22.48-0.12c-3.98-0.02-7.97-0.03-11.95-0.04
		c-1.55,0-3.1,0.02-4.65,0.04c-0.27,0-0.54,0.03-0.8,0.08c-0.68,0.12-1.16,0.54-1.19,1.2c-0.05,1.41-0.03,2.83,0.03,4.24
		c0.03,0.61,0.48,0.98,1.07,1.04c1.01,0.09,2.02,0.16,3.03,0.16c4.86,0.02,9.72,0.02,14.59,0.01c7.36,0,14.71-0.01,22.07-0.03
		c4.59-0.01,9.18-0.03,13.77-0.05c0.34,0,0.68-0.02,1.01,0.02c0.72,0.09,1.08,0.44,1.09,1.21c0.01,1.21-0.07,2.43-0.09,3.64
		c-0.01,0.94,0,1.88,0.01,2.83c0.04,3.51,0.11,7.02,0.13,10.53c0.02,3.44-0.01,6.88,0.01,10.33c0.01,0.87,0.17,1.74,0.21,2.62
		c0.03,0.6,0.07,1.21-0.04,1.79c-0.15,0.72-0.66,1.18-1.42,1.25c-0.67,0.06-1.35,0.1-2.02,0.09c-4.18-0.02-8.37-0.08-12.55-0.08
		c-5.47,0-10.94,0.07-16.41,0.07c-4.25,0-8.5-0.04-12.75-0.08c-0.88-0.01-1.75-0.1-2.63-0.15
		C1052.71,232.11,1052.71,232.09,1052.71,232.08z"/>
	<path class="st0" d="M1204.01,178.26c0.72-0.58,0.64-1.3,0.65-1.95c0.04-1.89,0.01-3.78,0.01-5.67c0.01-3.57,0.03-7.15,0.05-10.72
		c0.01-1.28,0.04-2.56,0.02-3.84c-0.08-5.13-0.17-10.25-0.28-15.38c-0.06-2.7-0.14-5.39-0.25-8.08c-0.04-1.1,0.21-1.48,1.36-1.52
		c1.55-0.05,3.1,0.01,4.66,0c8.78-0.02,17.55-0.04,26.33-0.06c0.2,0,0.41-0.02,0.61-0.01c1.26,0.05,1.59,0.32,1.63,1.54
		c0.05,1.62,0.05,3.24,0.04,4.86c0,1.35-0.07,2.7-0.07,4.05c0,12.48,0.01,24.97,0.02,37.45c0,4.72,0.03,9.45,0.03,14.17
		c0,3.71-0.02,7.42-0.06,11.13c-0.07,6.14-0.17,12.28-0.23,18.42c-0.03,2.36,0.01,4.72,0.02,7.09c0,0.47,0.02,0.95-0.03,1.41
		c-0.05,0.44-0.34,0.76-0.78,0.82c-0.87,0.12-1.74,0.26-2.62,0.26c-2.09,0.01-4.18-0.08-6.27-0.09c-1.55,0-3.1,0.11-4.65,0.11
		c-1.28,0-2.56-0.08-3.84-0.13c-0.67-0.02-1.35-0.07-2.02-0.07c-2.56,0.01-5.12,0.03-7.68,0.07c-1.82,0.03-3.65,0.03-5.46,0.19
		c-1.36,0.11-2.35-0.36-3.18-1.37c-0.72-0.89-1.42-1.8-2.2-2.64c-2.29-2.47-4.64-4.9-6.92-7.38c-2.24-2.43-4.42-4.91-6.64-7.35
		c-2.18-2.39-4.39-4.76-6.58-7.15s-4.34-4.8-6.52-7.19c-0.87-0.95-1.77-1.85-2.66-2.78c-2.75-2.87-5.53-5.71-8.25-8.61
		c-1.38-1.47-2.62-3.08-4-4.56c-2.12-2.27-4.3-4.47-6.46-6.7c-0.09-0.1-0.2-0.18-0.31-0.26c-0.68-0.51-1.35-0.27-1.46,0.59
		c-0.1,0.8-0.12,1.61-0.12,2.42c-0.06,7.49-0.12,14.98-0.15,22.46c-0.02,4.25,0.04,8.5,0.04,12.75c0.01,4.18-0.02,8.37,0.01,12.55
		c0.01,1.14,0.12,2.28,0.22,3.42c0.08,0.89-0.15,1.27-1.05,1.38c-0.8,0.1-1.62,0.15-2.42,0.15c-5.87-0.01-11.75-0.04-17.62-0.04
		c-1.69,0-3.37,0.13-5.06,0.13c-2.69-0.01-5.39-0.06-8.08-0.14c-0.97-0.03-1.29-0.37-1.51-1.31c-0.06-0.26-0.12-0.53-0.12-0.8
		c0-2.49-0.3-4.98-0.07-7.47c0.01-0.13,0.03-0.27,0.03-0.4c0.03-5.19,0.06-10.39,0.08-15.58c0.01-1.42-0.04-2.83,0.04-4.25
		c0.22-3.91-0.15-7.82-0.01-11.73c0.05-1.35,0.08-2.7,0.12-4.04c0.01-0.34,0.06-0.68,0.04-1.01c-0.34-4.04-0.14-8.08-0.14-12.13
		c-0.02-7.42-0.13-14.84-0.17-22.26c-0.02-4.72,0.03-9.45,0.04-14.17c0-1.21-0.06-2.43-0.02-3.64c0.06-1.45,0.57-1.93,2.01-1.92
		c1.62,0.01,3.24,0.12,4.85,0.13c8.3,0.04,16.6,0.08,24.91,0.09c3.04,0,6.08-0.04,9.11-0.1c1.72-0.03,3.05,0.49,4.26,1.84
		c2.33,2.62,4.88,5.04,7.32,7.56c2.34,2.43,4.64,4.9,7,7.31c3.73,3.8,7.51,7.57,11.25,11.36c0.71,0.72,1.35,1.5,2.04,2.25
		c0.68,0.74,1.37,1.49,2.08,2.21c2.61,2.64,5.23,5.26,7.84,7.9c1.66,1.68,3.3,3.38,4.97,5.04
		C1202.36,177.46,1202.97,178.12,1204.01,178.26z"/>
</g>
<g>
	<circle class="st1" cx="133.5" cy="186.5" r="96.5"/>
	<path class="st1" d="M132.74,145.37c0.63,0.08,1.17,0.34,1.52,0.88C133.61,146.21,133.12,145.87,132.74,145.37L132.74,145.37z"/>
	<circle class="st2" cx="133.5" cy="186.5" r="74.09"/>
	<path class="st3" d="M133.5,277.79c-12.32,0-24.28-2.41-35.54-7.18c-10.87-4.6-20.63-11.18-29.02-19.56
		c-8.38-8.38-14.96-18.14-19.56-29.02c-4.76-11.26-7.18-23.22-7.18-35.54s2.41-24.28,7.18-35.54c4.6-10.87,11.18-20.63,19.56-29.02
		s18.14-14.96,29.02-19.56c11.26-4.76,23.22-7.18,35.54-7.18s24.28,2.41,35.54,7.18c10.87,4.6,20.63,11.18,29.02,19.56
		c8.38,8.38,14.96,18.14,19.56,29.02c4.76,11.26,7.18,23.22,7.18,35.54s-2.41,24.28-7.18,35.54c-4.6,10.87-11.18,20.63-19.56,29.02
		c-8.38,8.38-18.14,14.96-29.02,19.56C157.78,275.38,145.82,277.79,133.5,277.79z M133.5,112.6c-19.74,0-38.3,7.69-52.26,21.65
		S59.6,166.76,59.6,186.5s7.69,38.3,21.65,52.26c13.96,13.96,32.52,21.65,52.26,21.65s38.3-7.69,52.26-21.65
		c13.96-13.96,21.65-32.52,21.65-52.26s-7.69-38.3-21.65-52.26C171.8,120.28,153.24,112.6,133.5,112.6z"/>
	<g>
		<path class="st2" d="M197.22,188.9c-9.23-16.63-30.05-44.03-30.05-44.03l-9.66,6.84l-17.16-12.93h-12.82l-4.14,2.54l-0.67,7.88
			l-3.61-4.67l-9.57,6.81l-9.73-6.45c0,0-20.82,27.4-30.05,44.03c-0.52,0.94-1.05,1.98-0.88,3.04c0.18,1.22,1.21,2.12,2.16,2.9
			c3.64,2.98,7.28,5.97,10.91,8.95c0.01,0.01,0.02,0.01,0.02,0.02c1.72,0.76,2.3-0.43,2.71-1.44c1.85-4.6,3.65-10.12,5.32-15.89
			l-1.2-7.06l2.87,1.07c2.75-10.22,5.03-20.52,6.47-27.4l-2.53,12.58l4.66,4.07l-4.95,4.02l4.54,14.95l-3.34,6.41l2.67,8.14
			l26.84,33.11h15.09l26.44-33.25l1.74-7.88l-3.07-6.54l4.54-14.82l-4.26-3.47l4.82-4.75l-2.53-12.58
			c1.44,6.88,3.73,17.18,6.47,27.4l2.87-1.07l-1.2,7.06c1.67,5.77,3.47,11.29,5.32,15.89c0.41,1.01,0.99,2.2,2.71,1.44
			c0.01,0,0.02-0.01,0.02-0.02c3.64-2.98,7.28-5.97,10.91-8.95c0.95-0.78,1.98-1.68,2.16-2.9
			C198.26,190.88,197.74,189.85,197.22,188.9z"/>
		<path class="st3" d="M141.48,237.51h-15.74l-27.12-33.46l-2.8-8.54l3.34-6.42l-4.59-15.13l7.29-5.92l1.16-2.9l-3.32-7.19
			l19.55-13.93l2.94,3.81l0.55-6.48l4.6-2.82h13.24l0.18,0.14l25.95,19.57l-3.47,6.93l0.92,2.88l7.41,6.04l-4.6,15.01l3.06,6.51
			l-1.82,8.26l-0.1,0.12L141.48,237.51z M126.39,236.15h14.44l26.14-32.87l1.65-7.5l-3.08-6.57l4.48-14.63l-7.01-5.71l-1.21-3.79
			l3.21-6.42l-24.87-18.75h-12.4l-3.68,2.26l-0.79,9.28l-4.27-5.54l-17.57,12.51l3.09,6.7l-1.51,3.77l-6.86,5.56l4.49,14.78
			l-3.33,6.4l2.54,7.75L126.39,236.15z"/>
		<g>
			<path class="st3" d="M108.91,166.73c0.36-1.19-2.38-5.95,2.14-8.87c2.2-0.77,5.06-0.94,7.26,1.19
				c2.2,2.13,10.83,12.26,10.83,14.29s-0.71,2.14-0.71,2.14s-17.68,7.44-21.91,7.44s-5.42-4.11-4.23-7.2
				C103.49,172.63,108.55,167.92,108.91,166.73z"/>
		</g>
		<g>
			<path class="st3" d="M129.27,188.78c0,0-4.87,1.13-5.13,4.61c-0.26,3.49,2.9,4.57,5.36,4.57c2.46,0,3.41-2.04,3.91-1.91
				s5.49,1.43,5.49,1.43s3.6-0.16,3.6-4.09s-4.72-5.33-4.72-5.33s-3.51-5.16-4.46-5.12C132.24,182.99,129.27,188.78,129.27,188.78z"
				/>
		</g>
		<g>
			<path class="st3" d="M158.38,167.5c-0.36-1.19,2.38-5.95-2.14-8.87c-2.2-0.77-5.06-0.94-7.26,1.19s-10.83,12.26-10.83,14.29
				s0.71,2.14,0.71,2.14s17.68,7.44,21.91,7.44s5.42-4.11,4.23-7.2C163.8,173.4,158.74,168.7,158.38,167.5z"/>
		</g>
		<path class="st3" d="M125.05,155.12c2.57,1.63,4.35,4.42,4.82,7.44c0.04,0.23-0.12,0.45-0.35,0.49c-0.23,0.04-0.45-0.12-0.49-0.35
			C128.86,159.77,127.4,156.94,125.05,155.12L125.05,155.12z"/>
		<path class="st3" d="M141.8,155.12c-2.33,1.81-3.8,4.62-3.98,7.54c-0.05,0.56-0.88,0.5-0.85-0.06
			C137.43,159.56,139.22,156.75,141.8,155.12L141.8,155.12z"/>
		<path class="st3" d="M124.23,186.07c-3.92,1.34-6.76,5.37-5.97,9.54c0.21,1.33,0.63,2.63,1.16,3.95c-0.52-0.5-0.91-1.12-1.23-1.76
			C115.81,192.92,118.97,187.08,124.23,186.07L124.23,186.07z"/>
		<path class="st3" d="M127.07,187.61c-4.12,0.45-7.77,3.77-7.91,8.01c-0.08,1.35,0.04,2.7,0.27,4.11c-0.4-0.6-0.64-1.29-0.81-1.99
			C117.36,192.46,121.72,187.45,127.07,187.61L127.07,187.61z"/>
		<path class="st3" d="M143.18,185.62c5.26,1.01,8.42,6.85,6.04,11.73c-0.32,0.65-0.71,1.26-1.23,1.76
			c0.53-1.32,0.95-2.62,1.16-3.95C149.94,191,147.1,186.96,143.18,185.62L143.18,185.62z"/>
		<path class="st3" d="M140.34,187.16c5.35-0.16,9.71,4.85,8.45,10.13c-0.17,0.7-0.42,1.39-0.81,1.99c0.23-1.4,0.35-2.76,0.27-4.11
			C148.11,190.93,144.45,187.61,140.34,187.16L140.34,187.16z"/>
		<g>
			<path class="st3" d="M129.38,224.29v-1.37c0-0.81-0.66-1.47-1.47-1.47l0,0c-0.81,0-1.47,0.66-1.47,1.47v0.81
				c0,0.34-0.22,0.63-0.54,0.73l-3.45,1.02c-0.37,0.11-0.77-0.08-0.92-0.44l-9.19-22.65c-0.24-0.58,0.3-1.18,0.9-1.02l6.48,1.75
				c0.17,0.04,0.31,0.14,0.41,0.28l3.24,4.39c0.14,0.19,0.37,0.31,0.61,0.31h4.08c0.02,0,0.04,0,0.06,0l5.16,0.42
				c0.04,0,0.09,0,0.13,0l4.53-0.41c0.04,0,0.07,0,0.11,0l3.85,0.19c0.23,0.01,0.45-0.08,0.6-0.25l3.83-4.21
				c0.07-0.07,0.15-0.13,0.24-0.18l5.17-2.42c0.61-0.29,1.27,0.31,1.04,0.95l-8.35,23.04c-0.14,0.38-0.56,0.59-0.95,0.46l-3.81-1.22
				c-0.31-0.1-0.53-0.39-0.53-0.72v-0.82c0-0.81-0.66-1.47-1.47-1.47s-1.47,0.66-1.47,1.47v1.37"/>
			<path class="st3" d="M130.03,224.21c0-0.46,0.01-0.91,0-1.37c-0.01-0.84-0.54-1.5-1.36-1.71c-0.85-0.21-1.85,0.09-2.43,0.74
				c-0.52,0.58-0.42,1.16-0.46,1.86c-0.01,0.13-0.01,0.25-0.07,0.37c-0.05,0.09,0.16-0.07,0,0.04c-0.15,0.1-0.45,0.13-0.62,0.18
				c-0.62,0.18-1.23,0.36-1.85,0.55c-0.23,0.07-0.46,0.14-0.7,0.21c-0.04,0.01-0.12,0.05-0.16,0.05c-0.01,0-0.03,0.01-0.04,0.01
				c0.17,0.04-0.09-0.16-0.12-0.2c-0.06-0.08-0.09-0.17-0.13-0.27c-1.61-3.7-3.04-7.5-4.56-11.24c-1.49-3.68-3.05-7.35-4.49-11.06
				c-0.02-0.04-0.04-0.09-0.05-0.13c-0.04-0.14,0.01-0.35-0.03-0.44c-0.05-0.13,0.25-0.08-0.14-0.07c0.01,0,0.01,0.01,0.02,0.01
				c0.03,0,0.07,0.01,0.09,0.02c0.14,0.07,0.32,0.09,0.47,0.13c1.19,0.32,2.38,0.64,3.57,0.96c0.55,0.15,1.09,0.29,1.64,0.44
				c0.22,0.06,0.52,0.09,0.73,0.21c0.26,0.16,0.46,0.56,0.64,0.79c0.36,0.49,0.72,0.98,1.08,1.47c0.55,0.75,1.06,1.59,1.68,2.29
				c0.63,0.7,2.12,0.43,2.95,0.43c1.94,0,3.83,0.14,5.77,0.29c0.7,0.06,1.4,0.16,2.1,0.09c1.18-0.11,2.35-0.21,3.53-0.32
				c0.19-0.02,0.38-0.04,0.56-0.05c0.05,0,0.1-0.01,0.15-0.01c0.03,0-0.1,0.01-0.01,0.01c0.46,0.01,0.92,0.04,1.38,0.07
				c0.63,0.03,1.26,0.06,1.89,0.09c0.53,0.03,1.03,0.05,1.53-0.21c0.33-0.18,0.55-0.46,0.8-0.73c0.39-0.43,0.78-0.85,1.16-1.28
				c0.73-0.8,1.43-1.63,2.19-2.4c0.38-0.39,1.27-0.66,1.82-0.92c1.05-0.49,2.11-0.99,3.16-1.48c0.05-0.02,0.17-0.11,0.22-0.1
				c-0.2-0.01,0.13,0.31,0.15,0.42c0.02,0.12,0,0.22-0.03,0.33c-0.02,0.09-0.07,0.18-0.1,0.27c-0.19,0.53-0.39,1.07-0.58,1.6
				c-0.75,2.08-1.51,4.15-2.26,6.23c-1.63,4.49-3.25,8.97-4.88,13.46c-0.16,0.43-0.39,0.9-0.49,1.35c-0.01,0.03-0.04,0.07-0.04,0.1
				c0,0.08,0.16,0.06,0.04,0.02c-0.44-0.17-0.91-0.29-1.36-0.44c-0.6-0.19-1.21-0.39-1.81-0.58c-0.41-0.13-0.8-0.17-0.85-0.7
				c-0.07-0.7,0.1-1.33-0.43-1.92c-0.62-0.68-1.65-0.73-2.46-0.41c-0.75,0.3-1.32,0.92-1.36,1.75c-0.02,0.45,0,0.91,0,1.36
				c0,0.55,1.31,0.28,1.31-0.16c0-0.46-0.02-0.92,0-1.37c0.02-0.35,0.14-0.91,0.54-1c0.46-0.11,0.9,0.45,1.02,0.82
				c0.18,0.57-0.13,1.28,0.26,1.79c0.27,0.35,0.76,0.44,1.16,0.57c1.06,0.34,2.12,0.75,3.2,1.03c0.92,0.24,1.79-0.23,2.11-1.09
				c1.44-3.85,2.8-7.73,4.2-11.59c1.35-3.71,2.79-7.41,4.04-11.15c0.42-1.25-1.01-1.63-1.94-1.23c-0.93,0.39-1.84,0.86-2.76,1.29
				c-0.84,0.39-1.73,0.73-2.53,1.19c-0.32,0.18-0.53,0.45-0.77,0.72c-0.4,0.44-0.8,0.88-1.2,1.32c-0.44,0.48-0.88,0.96-1.31,1.44
				c-0.17,0.19-0.34,0.38-0.52,0.57c-0.07,0.08-0.32,0.27-0.34,0.38c0,0.02-0.04,0.03-0.05,0.05c0.01-0.05,0.26,0.04,0.13-0.02
				c-0.14-0.06-0.42-0.02-0.57-0.03c-0.66-0.03-1.31-0.06-1.97-0.09c-1.94-0.09-3.85,0.16-5.79,0.34c-0.59,0.05-1.4-0.08-2.09-0.13
				c-1.08-0.09-2.17-0.2-3.25-0.26c-0.88-0.05-1.77-0.01-2.65-0.01c-0.46,0-0.99,0.07-1.45,0c-0.28-0.04-0.41-0.26-0.57-0.48
				c-0.72-0.98-1.45-1.97-2.17-2.95c-0.45-0.61-0.81-1.35-1.59-1.57c-2.06-0.59-4.14-1.16-6.22-1.68c-0.97-0.24-2.49,0.33-2.09,1.56
				c0.13,0.39,0.31,0.77,0.47,1.15c0.76,1.88,1.52,3.76,2.29,5.63c1.88,4.63,3.76,9.27,5.64,13.9c0.22,0.54,0.44,1.09,0.66,1.63
				c0.04,0.09,0.07,0.19,0.11,0.28c0.31,0.66,1.02,0.77,1.68,0.61c1.03-0.25,2.04-0.6,3.06-0.9c0.54-0.16,1.14-0.33,1.4-0.89
				s-0.06-1.22,0.23-1.78c0.49-0.96,1.43,0.05,1.49,0.77c0.04,0.45,0,0.91,0,1.36C128.72,224.93,130.03,224.65,130.03,224.21
				L130.03,224.21z"/>
		</g>
		<g>
			<path class="st2" d="M128.08,208.1v3.26c0,0.6-0.49,1.09-1.09,1.09h-2.32c-0.6,0-1.09-0.49-1.09-1.09v-3.26"/>
			<path class="st3" d="M126.99,213.13h-2.32c-0.97,0-1.77-0.79-1.77-1.77v-3.26c0-0.38,0.3-0.68,0.68-0.68s0.68,0.3,0.68,0.68v3.26
				c0,0.22,0.18,0.41,0.41,0.41h2.32c0.22,0,0.41-0.18,0.41-0.41v-3.26c0-0.38,0.3-0.68,0.68-0.68c0.38,0,0.68,0.3,0.68,0.68v3.26
				C128.76,212.33,127.97,213.13,126.99,213.13z"/>
		</g>
		<g>
			<path class="st2" d="M133.32,208.1v3.26c0,0.6-0.49,1.09-1.09,1.09h-2.32c-0.6,0-1.09-0.49-1.09-1.09v-3.26"/>
			<path class="st3" d="M132.24,213.13h-2.32c-0.97,0-1.77-0.79-1.77-1.77v-3.26c0-0.38,0.3-0.68,0.68-0.68
				c0.38,0,0.68,0.3,0.68,0.68v3.26c0,0.22,0.18,0.41,0.41,0.41h2.32c0.22,0,0.41-0.18,0.41-0.41v-3.26c0-0.38,0.3-0.68,0.68-0.68
				c0.38,0,0.68,0.3,0.68,0.68v3.26C134,212.33,133.21,213.13,132.24,213.13z"/>
		</g>
		<g>
			<path class="st2" d="M137.98,208.1v3.26c0,0.6-0.49,1.09-1.09,1.09h-2.32c-0.6,0-1.09-0.49-1.09-1.09v-3.26"/>
			<path class="st3" d="M136.89,213.13h-2.32c-0.97,0-1.77-0.79-1.77-1.77v-3.26c0-0.38,0.3-0.68,0.68-0.68
				c0.38,0,0.68,0.3,0.68,0.68v3.26c0,0.22,0.18,0.41,0.41,0.41h2.32c0.22,0,0.41-0.18,0.41-0.41v-3.26c0-0.38,0.3-0.68,0.68-0.68
				c0.38,0,0.68,0.3,0.68,0.68v3.26C138.66,212.33,137.86,213.13,136.89,213.13z"/>
		</g>
		<g>
			<path class="st2" d="M142.97,208.1v3.26c0,0.6-0.49,1.09-1.09,1.09h-2.32c-0.6,0-1.09-0.49-1.09-1.09v-3.26"/>
			<path class="st3" d="M141.88,213.13h-2.32c-0.97,0-1.77-0.79-1.77-1.77v-3.26c0-0.38,0.3-0.68,0.68-0.68
				c0.38,0,0.68,0.3,0.68,0.68v3.26c0,0.22,0.18,0.41,0.41,0.41h2.32c0.22,0,0.41-0.18,0.41-0.41v-3.26c0-0.38,0.3-0.68,0.68-0.68
				c0.38,0,0.68,0.3,0.68,0.68v3.26C143.65,212.33,142.86,213.13,141.88,213.13z"/>
		</g>
		<path class="st3" d="M100.09,187.51c0.81,3.54,3.29,6.55,7.03,7.13c-0.92-0.03-1.84-0.22-2.72-0.55
			c-2.78-0.97-4.61-3.54-5.61-6.22C98.78,187.88,100.09,187.51,100.09,187.51L100.09,187.51z"/>
		<path class="st3" d="M166.98,189.33c-1.39,3.34-4.89,5.61-8.45,5.44c1.7-0.16,3.32-0.85,4.58-1.91c1.26-1.05,2.17-2.48,2.59-3.99
			L166.98,189.33L166.98,189.33z"/>
		<g>
			<polygon class="st2" points="119.89,203.64 123.37,207.58 115.08,218.94 118.18,205.25 			"/>
			<path class="st3" d="M115.08,219.62c-0.09,0-0.19-0.02-0.28-0.06c-0.29-0.13-0.45-0.45-0.38-0.77l3.09-13.69
				c0.03-0.13,0.1-0.25,0.2-0.34l1.71-1.61c0.13-0.13,0.31-0.19,0.5-0.18c0.18,0.01,0.36,0.09,0.48,0.23l3.48,3.94
				c0.21,0.24,0.23,0.59,0.04,0.85l-8.29,11.37C115.5,219.52,115.29,219.62,115.08,219.62z M118.79,205.6l-2.32,10.29l6.03-8.27
				l-2.66-3.01L118.79,205.6z"/>
		</g>
		<g>
			<polygon class="st2" points="146.45,204.26 142.97,208.2 151.26,219.56 148.16,205.87 			"/>
			<path class="st3" d="M151.26,220.24c-0.21,0-0.42-0.1-0.55-0.28l-8.29-11.37c-0.19-0.26-0.17-0.61,0.04-0.85l3.48-3.94
				c0.12-0.14,0.29-0.22,0.48-0.23c0.18,0,0.36,0.06,0.5,0.18l1.71,1.61c0.1,0.09,0.17,0.21,0.2,0.34l3.09,13.69
				c0.07,0.31-0.09,0.64-0.38,0.77C151.45,220.22,151.35,220.24,151.26,220.24z M143.84,208.24l6.03,8.27l-2.32-10.29l-1.05-0.99
				L143.84,208.24z"/>
		</g>
		<path class="st3" d="M126.01,208.86c-1.77,0-3.09-0.83-3.49-1.11c-0.31-0.22-0.38-0.64-0.16-0.95c0.22-0.31,0.64-0.38,0.95-0.16
			c0.34,0.24,1.57,1.01,3.17,0.83c0.56-0.06,1.1-0.23,1.58-0.5c0.33-0.18,0.74-0.06,0.92,0.26c0.18,0.33,0.06,0.74-0.26,0.92
			c-0.65,0.36-1.35,0.58-2.09,0.67C126.42,208.85,126.22,208.86,126.01,208.86z"/>
		<path class="st3" d="M131.12,209.2c-1.6,0-2.79-0.85-3.14-1.13c-0.29-0.24-0.34-0.66-0.1-0.96c0.24-0.29,0.66-0.34,0.96-0.1
			c0.29,0.23,1.33,0.98,2.69,0.81c0.47-0.06,0.92-0.22,1.34-0.48c0.32-0.2,0.74-0.11,0.94,0.21s0.11,0.74-0.21,0.94
			c-0.58,0.37-1.22,0.6-1.89,0.68C131.49,209.19,131.3,209.2,131.12,209.2z"/>
		<path class="st3" d="M135.85,209.4c-1.4,0-2.48-0.64-2.93-0.95c-0.31-0.22-0.38-0.64-0.16-0.95s0.64-0.38,0.95-0.16
			s1.4,0.9,2.74,0.65c0.47-0.09,0.91-0.28,1.3-0.56c0.3-0.22,0.73-0.15,0.95,0.15c0.22,0.3,0.15,0.73-0.15,0.95
			c-0.56,0.4-1.18,0.67-1.84,0.8C136.4,209.38,136.12,209.4,135.85,209.4z"/>
		<path class="st3" d="M140.49,209.31c-1.26,0-2.27-0.52-2.7-0.78c-0.32-0.2-0.42-0.62-0.22-0.93c0.2-0.32,0.62-0.42,0.94-0.22
			s1.46,0.81,2.78,0.48c0.46-0.12,0.88-0.33,1.26-0.64c0.29-0.24,0.72-0.2,0.96,0.09s0.2,0.72-0.09,0.96
			c-0.53,0.44-1.13,0.74-1.79,0.91C141.22,209.27,140.85,209.31,140.49,209.31z"/>
		<path class="st3" d="M128.4,203.89l0.68,3.48c0.07,0.38-0.17,0.74-0.55,0.81c-0.47,0.1-0.91-0.34-0.81-0.81
			C127.72,207.37,128.4,203.89,128.4,203.89L128.4,203.89z"/>
		<path class="st3" d="M133.33,192.82l0.68,14.92c0.02,0.38-0.27,0.69-0.65,0.71c-0.4,0.02-0.73-0.31-0.71-0.71L133.33,192.82
			L133.33,192.82z"/>
		<polygon class="st3" points="134.07,140.45 133.33,162.73 132.59,140.45 132.57,139.71 134.1,139.71 		"/>
		<path class="st3" d="M138.14,204.26l0.68,3.48c0.07,0.38-0.17,0.74-0.55,0.81c-0.47,0.1-0.91-0.34-0.81-0.81
			C137.46,207.74,138.14,204.26,138.14,204.26L138.14,204.26z"/>
		<path class="st3" d="M139.12,224.88c-0.92-0.49-2.12-0.42-2.79,0.33c-0.63,0.67-1.65-0.25-1.04-0.95
			C136.47,223.4,138.27,223.83,139.12,224.88L139.12,224.88z"/>
		<g>
			<path class="st2" d="M132.75,224.29v-2.13c0-0.39,0.32-0.71,0.71-0.71h1.52c0.39,0,0.71,0.32,0.71,0.71v2.13"/>
			<path class="st3" d="M135.69,224.97c-0.38,0-0.68-0.3-0.68-0.68v-2.13l-1.55-0.03l-0.03,2.16c0,0.38-0.3,0.68-0.68,0.68
				c-0.38,0-0.68-0.3-0.68-0.68v-2.13c0-0.77,0.62-1.39,1.39-1.39h1.52c0.77,0,1.39,0.62,1.39,1.39v2.13
				C136.37,224.67,136.06,224.97,135.69,224.97z"/>
		</g>
		<path class="st3" d="M129.24,224.97c-0.72-0.74-1.85-0.97-2.8-0.44c0.78-1.01,2.35-1.22,3.51-0.72
			C131.05,224.25,130.11,225.77,129.24,224.97L129.24,224.97z"/>
		<path class="st3" d="M135.97,227.05c-0.15-0.5-0.75-2.5-0.88-2.96h1.77C136.72,224.54,136.11,226.56,135.97,227.05L135.97,227.05z
			"/>
		<path class="st3" d="M132.71,226.81c-0.14-0.5-0.71-2.5-0.85-2.96h1.75c-0.13,0.45-0.71,2.47-0.85,2.96l-0.01,0.03
			C132.72,226.83,132.72,226.85,132.71,226.81L132.71,226.81z"/>
		<path class="st3" d="M129.56,226.81c-0.14-0.5-0.71-2.5-0.84-2.96h1.75c-0.13,0.45-0.7,2.47-0.84,2.96
			c-0.01,0.04-0.01,0.03-0.05,0.03L129.56,226.81L129.56,226.81z"/>
		<path class="st3" d="M135.97,225.34c-0.15,0-0.3-0.05-0.43-0.15c-0.17-0.14-0.79-0.58-1.58-0.48c-0.28,0.03-0.54,0.13-0.78,0.28
			c-0.32,0.2-0.74,0.11-0.94-0.21s-0.11-0.74,0.21-0.94c0.41-0.26,0.86-0.42,1.33-0.48c1.29-0.16,2.25,0.48,2.6,0.77
			c0.29,0.24,0.34,0.66,0.1,0.96C136.36,225.25,136.17,225.34,135.97,225.34z"/>
		<g>
			<path class="st2" d="M129.7,224.29v-2.13c0-0.39,0.32-0.71,0.71-0.71h1.52c0.39,0,0.71,0.32,0.71,0.71v2.13"/>
			<path class="st3" d="M132.64,224.97c-0.38,0-0.68-0.3-0.68-0.68v-2.13l-1.55-0.03l-0.03,2.16c0,0.38-0.3,0.68-0.68,0.68
				c-0.38,0-0.68-0.3-0.68-0.68v-2.13c0-0.77,0.62-1.39,1.39-1.39h1.52c0.77,0,1.39,0.62,1.39,1.39v2.13
				C133.32,224.67,133.02,224.97,132.64,224.97z"/>
		</g>
		<path class="st3" d="M132.75,225.11c-0.14,0-0.27-0.04-0.39-0.12c-0.18-0.13-0.83-0.53-1.61-0.39c-0.27,0.05-0.53,0.16-0.76,0.33
			c-0.3,0.22-0.73,0.15-0.95-0.15c-0.22-0.3-0.15-0.73,0.15-0.95c0.39-0.28,0.83-0.47,1.3-0.56c1.27-0.24,2.28,0.35,2.65,0.61
			c0.31,0.22,0.38,0.64,0.16,0.95C133.17,225.01,132.96,225.11,132.75,225.11z"/>
		<polygon class="st3" points="100.29,171.08 95.2,166.64 96.09,165.61 100.32,169.3 101.87,168.05 103.03,165.15 99.72,157.97 
			107.86,151.92 99.43,145.88 100.22,144.77 110.16,151.9 101.41,158.4 104.51,165.11 103,168.88 		"/>
		<path class="st3" d="M112.09,153.89c9.95-0.18,15.62,8.22,16.87,17.29c0.09,0.61,0.16,1.18,0.19,1.85l-3.69-0.05
			c0.24-4.19-0.52-8.62-2.66-12.28C120.6,156.88,116.51,154.37,112.09,153.89L112.09,153.89z"/>
		<path class="st3" d="M155.17,155.23c-4.42,0.48-8.51,2.99-10.71,6.82c-2.15,3.66-2.9,8.08-2.66,12.28l-3.69,0.05
			c0.03-0.67,0.11-1.25,0.19-1.85C139.55,163.45,145.22,155.05,155.17,155.23L155.17,155.23z"/>
		<path class="st3" d="M114.87,185.62c4.94-1.85,14.82-6.5,12.91-13.03l1.31-0.36C130.76,179.72,120.57,183.89,114.87,185.62
			L114.87,185.62z"/>
		<path class="st3" d="M112.83,183.56c5.12-1.28,15.46-4.77,14.31-11.48l1.34-0.21C129.3,179.51,118.7,182.49,112.83,183.56
			L112.83,183.56z"/>
		<path class="st3" d="M112.09,182.54c5.12-1.28,15.46-4.77,14.31-11.48l1.34-0.21C128.56,178.49,117.96,181.47,112.09,182.54
			L112.09,182.54z"/>
		<path class="st3" d="M152.62,187.02c-5.7-1.73-15.9-5.9-14.22-13.39l1.31,0.36C137.79,180.49,147.69,185.17,152.62,187.02
			L152.62,187.02z"/>
		<path class="st3" d="M154.66,184.96c-5.86-1.07-16.47-4.06-15.66-11.69l1.34,0.21C139.2,180.19,149.53,183.68,154.66,184.96
			L154.66,184.96z"/>
		<path class="st3" d="M155.4,183.94c-5.86-1.07-16.47-4.06-15.66-11.69l1.34,0.21C139.94,179.17,150.27,182.66,155.4,183.94
			L155.4,183.94z"/>
		<path class="st3" d="M101.34,191.12c-1.03,1.14-1.69,2.54-1.36,4.07c0.11,0.5,0.34,0.98,0.66,1.4c-0.86-0.71-1.29-1.83-1.35-2.94
			c-0.08-1.15,0.39-2.3,0.91-3.29C100.22,190.37,101.34,191.12,101.34,191.12L101.34,191.12z"/>
		<path class="st3" d="M102.43,192.3c-1.03,1.14-1.69,2.54-1.36,4.07c0.11,0.5,0.34,0.98,0.66,1.4c-0.86-0.71-1.29-1.83-1.35-2.94
			c-0.08-1.15,0.39-2.3,0.91-3.29C101.3,191.54,102.43,192.3,102.43,192.3L102.43,192.3z"/>
		<path class="st3" d="M103.59,193.41c-1.03,1.14-1.69,2.54-1.36,4.07c0.11,0.5,0.34,0.98,0.66,1.4c-0.86-0.71-1.29-1.83-1.35-2.94
			c-0.08-1.15,0.39-2.3,0.91-3.29C102.46,192.65,103.59,193.41,103.59,193.41L103.59,193.41z"/>
		<path class="st3" d="M104.99,194.24c-1.03,1.14-1.69,2.54-1.36,4.07c0.11,0.5,0.34,0.98,0.66,1.4c-0.86-0.71-1.29-1.83-1.35-2.94
			c-0.08-1.15,0.39-2.3,0.91-3.29C103.86,193.48,104.99,194.24,104.99,194.24L104.99,194.24z"/>
		<path class="st3" d="M102.66,167.63c-2.01-0.92-3.78-3.1-3.12-5.41c-0.16,2.17,1.64,3.72,3.64,4.15
			C103.17,166.37,102.66,167.63,102.66,167.63L102.66,167.63z"/>
		<path class="st3" d="M101.62,169.09c-1.97-0.99-3.66-3.24-2.92-5.52c-0.24,2.16,1.5,3.78,3.48,4.28
			C102.18,167.85,101.62,169.09,101.62,169.09L101.62,169.09z"/>
		<path class="st3" d="M166.17,190.56c1.15,1.89,1.4,4.69-0.44,6.23c1.34-1.71,0.72-4-0.69-5.47
			C165.04,191.31,166.17,190.56,166.17,190.56L166.17,190.56z"/>
		<path class="st3" d="M165.08,191.73c1.15,1.89,1.4,4.69-0.44,6.23c1.34-1.71,0.72-4-0.69-5.47
			C163.95,192.49,165.08,191.73,165.08,191.73L165.08,191.73z"/>
		<path class="st3" d="M163.93,192.84c1.15,1.89,1.4,4.69-0.44,6.23c1.34-1.71,0.72-4-0.69-5.47
			C162.8,193.6,163.93,192.84,163.93,192.84L163.93,192.84z"/>
		<path class="st3" d="M162.53,193.67c1.15,1.89,1.4,4.69-0.44,6.23c1.34-1.71,0.72-4-0.69-5.47L162.53,193.67L162.53,193.67z"/>
		<path class="st3" d="M133.09,168.47c0.5,1.9,0.48,3.82,0.45,5.76c-0.05,1.93-0.16,3.84-0.46,5.76c-0.3-1.91-0.4-3.83-0.46-5.76
			C132.6,172.31,132.53,170.3,133.09,168.47L133.09,168.47z"/>
		<path class="st3" d="M133.23,229.13c0.49,1.37,0.49,2.76,0.45,4.18c-0.05,1.4-0.16,2.8-0.46,4.18c-0.3-1.38-0.4-2.77-0.46-4.18
			C132.74,231.91,132.68,230.44,133.23,229.13L133.23,229.13z"/>
		<polygon class="st3" points="71.06,194.84 74.71,190.23 72.21,195.56 		"/>
		<path class="st3" d="M75.32,198.94c1.56-2.46,3.28-4.82,5.15-7.06c-0.84,2.01-1.86,3.96-2.9,5.89c-0.35,0.64-0.71,1.27-1.09,1.88
			L75.32,198.94L75.32,198.94z"/>
		<path class="st3" d="M78.27,201.31c1.84-3.47,3.93-7.04,6.1-10.32c-0.39,0.93-0.81,1.83-1.23,2.74c-1.25,2.62-2.66,5.49-4.08,8.01
			L78.27,201.31L78.27,201.31z"/>
		<path class="st3" d="M73.07,197.56c3.15-5.62,6.67-11.39,10.14-16.81c-0.74,1.46-1.48,2.92-2.25,4.37
			c-1.31,2.52-3.28,6.11-4.67,8.63c-0.8,1.43-1.6,2.85-2.44,4.26L73.07,197.56L73.07,197.56z"/>
		<path class="st3" d="M82.99,205.19c-0.39,0-0.81-0.1-1.27-0.3c-0.06-0.03-0.14-0.08-0.19-0.12l-10.9-8.94
			c-1.1-0.9-2.19-1.9-2.4-3.32c-0.19-1.26,0.37-2.41,0.96-3.48c9.14-16.49,29.89-43.84,30.1-44.11c0.19-0.25,0.53-0.34,0.82-0.21
			c0.29,0.13,0.45,0.44,0.39,0.75c-0.03,0.18-3.43,18.16-8.14,35.67c-0.05,0.18-0.17,0.34-0.34,0.43s-0.37,0.1-0.55,0.03l-1.77-0.66
			l1,5.9c0.02,0.1,0.01,0.2-0.02,0.3c-1.84,6.34-3.63,11.7-5.35,15.95c-0.22,0.55-0.63,1.58-1.57,1.96
			C83.52,205.14,83.26,205.19,82.99,205.19z M82.34,203.67c0.39,0.16,0.7,0.2,0.91,0.11c0.37-0.15,0.62-0.7,0.82-1.21
			c1.68-4.17,3.45-9.44,5.26-15.67l-1.17-6.91c-0.04-0.24,0.05-0.48,0.24-0.64c0.19-0.16,0.44-0.2,0.67-0.11l2.17,0.81
			c3.48-13.07,6.22-26.26,7.35-31.94c-5.23,7.01-20.69,28.02-28.22,41.58c-0.5,0.9-0.93,1.77-0.81,2.61
			c0.14,0.95,0.99,1.71,1.92,2.48L82.34,203.67z"/>
		<path class="st3" d="M125.31,191.76c-1.3,2.33-0.96,5.52,1.49,6.93c0.76,0.46,1.67,0.69,2.59,0.7c-0.91,0.15-1.89,0.03-2.76-0.39
			c-2.94-1.37-3.5-5.2-1.58-7.67l0.36,0.23L125.31,191.76L125.31,191.76z"/>
		<path class="st3" d="M125.22,191.74c-2.39,3.11-1.14,7.52,2.94,8.14c-0.92,0.02-1.88-0.24-2.67-0.78
			c-2.71-1.78-2.71-5.65-0.46-7.81l0.32,0.28L125.22,191.74L125.22,191.74z"/>
		<path class="st3" d="M125.79,191.28c-1.3,2.33-0.96,5.52,1.49,6.93c0.76,0.46,1.67,0.69,2.59,0.7c-0.91,0.15-1.89,0.03-2.76-0.39
			c-2.94-1.37-3.5-5.2-1.58-7.67l0.36,0.23L125.79,191.28L125.79,191.28z"/>
		<path class="st3" d="M125.58,191.37c-1.36,3.68,1.15,7.52,5.23,6.89c-0.88,0.29-1.87,0.33-2.78,0.05
			c-3.12-0.89-4.27-4.59-2.76-7.33l0.39,0.17L125.58,191.37L125.58,191.37z"/>
		<path class="st3" d="M141.62,191.17c2.54,3.51-0.03,8.53-4.47,7.87c0.93,0,1.83-0.23,2.59-0.7c2.55-1.49,2.78-4.75,1.39-7.13
			l0.36-0.23L141.62,191.17L141.62,191.17z"/>
		<path class="st3" d="M141.66,191.1c3.02,3.11,1.2,8.44-3.28,8.43c0.91-0.14,1.78-0.5,2.47-1.06c2.31-1.84,2.07-5.11,0.34-7.26
			l0.32-0.28L141.66,191.1L141.66,191.1z"/>
		<path class="st3" d="M141.14,190.69c2.54,3.51-0.03,8.53-4.47,7.87c0.93,0,1.83-0.23,2.59-0.7c2.55-1.49,2.78-4.75,1.39-7.13
			l0.36-0.23L141.14,190.69L141.14,190.69z"/>
		<path class="st3" d="M141.38,190.84c1.95,3.86-1.37,8.42-5.64,7.08c0.91,0.14,1.84,0.05,2.67-0.28c2.75-1.07,3.49-4.26,2.49-6.83
			l0.39-0.17L141.38,190.84L141.38,190.84z"/>
		<polygon class="st3" points="101.44,153.89 98.28,149.85 99.45,149.16 		"/>
		<polygon class="st3" points="102.06,151.01 98.9,146.97 100.07,146.28 		"/>
		<path class="st3" d="M101.77,152.37c-0.76-0.76-1.35-1.63-1.66-2.67C100.91,150.44,101.43,151.36,101.77,152.37L101.77,152.37z"/>
		<polygon class="st3" points="166.71,171.08 164,168.88 162.49,165.11 165.59,158.4 156.84,151.9 166.78,144.77 167.57,145.88 
			159.14,151.92 167.28,157.97 163.97,165.15 165.13,168.05 166.68,169.3 170.91,165.61 171.8,166.64 		"/>
		<path class="st3" d="M163.83,166.37c1.49-0.37,2.83-1.16,3.4-2.61c0.19-0.47,0.26-1,0.24-1.54c0.31,1.07,0.05,2.24-0.53,3.19
			c-0.58,1-1.61,1.69-2.6,2.22L163.83,166.37L163.83,166.37z"/>
		<path class="st3" d="M164.82,167.85c1.48-0.43,2.78-1.27,3.3-2.74c0.17-0.48,0.23-1.01,0.18-1.54c0.35,1.06,0.13,2.24-0.4,3.21
			c-0.54,1.02-1.54,1.75-2.51,2.31C165.38,169.09,164.82,167.85,164.82,167.85L164.82,167.85z"/>
		<polygon class="st3" points="194.79,195.56 192.29,190.23 195.94,194.84 		"/>
		<path class="st3" d="M190.52,199.65c-1.5-2.5-2.84-5.09-4-7.77c1.42,1.65,2.71,3.44,3.96,5.23c0.41,0.6,0.82,1.2,1.19,1.82
			L190.52,199.65L190.52,199.65z"/>
		<path class="st3" d="M187.94,201.74c-1.9-3.44-3.74-7.14-5.3-10.75c0.56,0.83,1.09,1.68,1.62,2.53c1.51,2.48,3.14,5.23,4.47,7.79
			L187.94,201.74L187.94,201.74z"/>
		<path class="st3" d="M193.15,198.01c-3.25-5.57-6.44-11.52-9.35-17.26c0.89,1.38,1.77,2.76,2.63,4.15c1.51,2.4,3.61,5.92,5.08,8.4
			c0.82,1.41,1.65,2.83,2.44,4.26L193.15,198.01L193.15,198.01z"/>
		<path class="st3" d="M184.02,205.19c-0.28,0-0.54-0.05-0.78-0.15c-0.94-0.38-1.35-1.41-1.57-1.96c-1.71-4.25-3.51-9.61-5.35-15.95
			c-0.03-0.1-0.03-0.2-0.02-0.3l1-5.9l-1.77,0.66c-0.18,0.07-0.38,0.06-0.55-0.03s-0.3-0.24-0.34-0.43
			c-4.71-17.51-8.1-35.49-8.14-35.67c-0.06-0.31,0.1-0.62,0.39-0.75s0.63-0.04,0.82,0.21c0.21,0.27,20.96,27.63,30.1,44.11
			c0.59,1.07,1.15,2.21,0.96,3.48c-0.22,1.43-1.3,2.42-2.4,3.32l-10.91,8.95c-0.05,0.04-0.14,0.09-0.2,0.12
			C184.82,205.09,184.4,205.19,184.02,205.19z M177.67,186.9c1.81,6.23,3.58,11.5,5.26,15.67c0.2,0.5,0.45,1.05,0.82,1.21
			c0.22,0.09,0.53,0.05,0.91-0.11l10.85-8.9c0.93-0.76,1.78-1.52,1.92-2.48c0.13-0.84-0.31-1.72-0.81-2.61
			c-7.53-13.57-22.98-34.58-28.22-41.58c1.13,5.69,3.87,18.87,7.35,31.94l2.17-0.81c0.23-0.08,0.48-0.04,0.67,0.11
			s0.28,0.4,0.24,0.64L177.67,186.9z"/>
		<polygon class="st3" points="165.56,153.89 167.55,149.16 168.72,149.85 		"/>
		<polygon class="st3" points="164.94,151.01 166.93,146.28 168.1,146.97 		"/>
		<path class="st3" d="M165.23,152.37c0.35-1.02,0.86-1.93,1.66-2.67C166.58,150.75,165.99,151.62,165.23,152.37L165.23,152.37z"/>
		<path class="st3" d="M130.2,155c0.3,1.03,0.4,2.08,0.16,3.14C130.02,157.11,130.01,156.06,130.2,155L130.2,155z"/>
		<path class="st3" d="M131,153.66c0.3,1.03,0.4,2.08,0.16,3.14C130.82,155.77,130.81,154.72,131,153.66L131,153.66z"/>
		<path class="st3" d="M135.61,156.68c0.3,1.03,0.4,2.08,0.16,3.14C135.42,158.79,135.42,157.74,135.61,156.68L135.61,156.68z"/>
		<path class="st3" d="M136.43,154.98c0.3,1.03,0.4,2.08,0.16,3.14C136.25,157.09,136.24,156.03,136.43,154.98L136.43,154.98z"/>
		<path class="st3" d="M130.36,204.29c0.24,0.72,0.29,1.44,0,2.15C130.07,205.73,130.11,205,130.36,204.29L130.36,204.29z"/>
		<path class="st3" d="M131.08,205.37c0.24,0.51,0.29,1.03,0,1.53C130.79,206.4,130.83,205.87,131.08,205.37L131.08,205.37z"/>
		<path class="st3" d="M136.09,204.32c0.24,0.72,0.29,1.44,0,2.15C135.8,205.77,135.85,205.04,136.09,204.32L136.09,204.32z"/>
		<path class="st3" d="M135.37,205.4c0.24,0.51,0.29,1.03,0,1.53C135.08,206.43,135.13,205.91,135.37,205.4L135.37,205.4z"/>
		<path class="st3" d="M141.71,145.74l7.05,4.36c0.3,0.18,0.39,0.57,0.2,0.87c-0.2,0.33-0.65,0.4-0.94,0.15
			C148.01,151.11,141.71,145.74,141.71,145.74L141.71,145.74z"/>
		<path class="st3" d="M112.01,196.23c-1.18,2.59-0.89,6.09,1.65,7.74l-0.56,0.72C110.57,202.65,110.44,198.89,112.01,196.23
			L112.01,196.23z"/>
		<path class="st3" d="M152.48,197.53c1.56,2.66,1.44,6.42-1.1,8.45l-0.56-0.72C153.36,203.62,153.66,200.13,152.48,197.53
			L152.48,197.53z"/>
		<path class="st3" d="M106.63,195.95c-0.69,4.55-0.25,9.44,2.47,13.26c0.82,1.26,1.75,2.43,2.73,3.85
			c-1.69-0.36-3.14-1.42-4.23-2.74C104.45,206.29,104.26,200.37,106.63,195.95L106.63,195.95z"/>
		<path class="st3" d="M160.14,197.07c2.37,4.42,2.18,10.34-0.97,14.36c-1.09,1.33-2.54,2.38-4.23,2.74
			c0.98-1.42,1.92-2.59,2.73-3.85C160.39,206.51,160.83,201.63,160.14,197.07L160.14,197.07z"/>
	</g>
	<g>
		<rect x="131.29" y="102.98" class="st2" width="4.41" height="4.41"/>
		
			<rect x="97.93" y="110.07" transform="matrix(0.9136 -0.4067 0.4067 0.9136 -37.0073 50.434)" class="st2" width="4.41" height="4.41"/>
		
			<rect x="70.34" y="130.11" transform="matrix(0.6691 -0.7431 0.7431 0.6691 -74.3258 97.6902)" class="st2" width="4.41" height="4.41"/>
		
			<rect x="53.3" y="159.64" transform="matrix(0.309 -0.9511 0.9511 0.309 -115.5665 164.6265)" class="st2" width="4.41" height="4.41"/>
		
			<rect x="49.74" y="193.57" transform="matrix(0.9945 -0.1045 0.1045 0.9945 -20.1746 6.4999)" class="st2" width="4.41" height="4.41"/>
		<rect x="60.27" y="225.99" transform="matrix(0.866 -0.5 0.5 0.866 -105.732 61.8123)" class="st2" width="4.41" height="4.41"/>
		
			<rect x="83.1" y="251.34" transform="matrix(0.5878 -0.809 0.809 0.5878 -169.956 173.519)" class="st2" width="4.41" height="4.41"/>
		
			<rect x="114.25" y="265.22" transform="matrix(0.2079 -0.9781 0.9781 0.2079 -169.3374 325.7352)" class="st2" width="4.41" height="4.41"/>
		
			<rect x="148.36" y="265.21" transform="matrix(0.9781 -0.2079 0.2079 0.9781 -52.309 37.148)" class="st2" width="4.41" height="4.41"/>
		
			<rect x="179.5" y="251.34" transform="matrix(0.809 -0.5878 0.5878 0.809 -114.331 155.2318)" class="st2" width="4.41" height="4.41"/>
		<rect x="202.33" y="225.98" transform="matrix(0.5 -0.866 0.866 0.5 -95.3488 291.217)" class="st2" width="4.41" height="4.41"/>
		
			<rect x="212.86" y="193.55" transform="matrix(0.1045 -0.9945 0.9945 0.1045 -2.0944 389.1925)" class="st2" width="4.41" height="4.41"/>
		
			<rect x="209.28" y="159.65" transform="matrix(0.9511 -0.309 0.309 0.9511 -39.6621 73.2676)" class="st2" width="4.41" height="4.41"/>
		
			<rect x="192.24" y="130.1" transform="matrix(0.7431 -0.6691 0.6691 0.7431 -38.5835 164.094)" class="st2" width="4.41" height="4.41"/>
		
			<rect x="164.65" y="110.06" transform="matrix(0.4067 -0.9136 0.9136 0.4067 -3.5696 219.0296)" class="st2" width="4.41" height="4.41"/>
	</g>
</g>
</svg>
